<?xml version="1.0" standalone="no"?>
<!DOCTYPE svg PUBLIC "-//W3C//DTD SVG 1.1//EN" "http://www.w3.org/Graphics/SVG/1.1/DTD/svg11.dtd">
<svg version="1.1" xmlns="http://www.w3.org/2000/svg" viewBox="0 0 1191.765625 369.62890625" width="2383.53125" height="739.2578125" filter="invert(93%) hue-rotate(180deg)"><!-- svg-source:excalidraw --><metadata></metadata><defs><style class="style-fonts">
      </style></defs><g transform="translate(23.26953125 359.62890625) rotate(0 86.47265625 -141.986328125)" stroke="none"><path fill="#e03131" d="M -3.23,0 Q -3.23,0 -3.35,-3.25 -3.47,-6.51 -3.44,-10.42 -3.41,-14.32 -3.30,-18.77 -3.19,-23.21 -3.12,-27.67 -3.04,-32.12 -2.98,-37.29 -2.92,-42.47 -2.88,-49.23 -2.84,-55.99 -2.81,-62.29 -2.78,-68.60 -2.76,-74.69 -2.74,-80.77 -2.72,-87.94 -2.71,-95.10 -2.69,-102.15 -2.68,-109.20 -2.67,-114.87 -2.67,-120.53 -2.66,-126.21 -2.65,-131.89 -2.65,-137.80 -2.64,-143.71 -2.64,-148.03 -2.64,-152.35 -2.70,-156.35 -2.75,-160.34 -2.87,-163.95 -2.99,-167.56 -3.19,-170.35 -3.38,-173.13 -3.55,-175.80 -3.72,-178.46 -3.87,-181.06 -4.01,-183.66 -4.15,-186.04 -4.28,-188.42 -4.95,-191.71 -5.63,-194.99 -5.88,-197.46 -6.13,-199.93 -6.77,-202.75 -7.40,-205.57 -8.28,-209.47 -9.16,-213.37 -9.68,-216.22 -10.20,-219.08 -10.65,-221.27 -11.11,-223.45 -11.47,-225.58 -11.83,-227.70 -12.44,-231.19 -13.04,-234.68 -13.55,-238.14 -14.06,-241.60 -14.65,-244.47 -15.25,-247.34 -15.72,-250.30 -16.19,-253.26 -16.99,-255.89 -17.79,-258.52 -13.12,-259.03 -8.45,-259.53 -6.28,-259.51 -4.10,-259.48 -2.68,-256.99 -1.26,-254.49 -0.18,-251.86 0.90,-249.22 2.12,-246.88 3.35,-244.54 4.93,-242.18 6.51,-239.81 8.84,-236.80 11.18,-233.79 13.73,-230.79 16.29,-227.79 18.00,-225.81 19.70,-223.84 21.57,-221.73 23.44,-219.62 25.42,-217.51 27.41,-215.40 29.51,-213.26 31.61,-211.12 33.79,-208.96 35.97,-206.80 37.88,-204.96 39.79,-203.13 41.41,-201.68 43.04,-200.24 44.84,-198.60 46.65,-196.96 48.44,-195.26 50.24,-193.56 51.88,-192.08 53.52,-190.60 55.15,-189.17 56.77,-187.74 59.53,-185.09 62.29,-182.44 64.51,-180.39 66.73,-178.34 68.98,-175.97 71.23,-173.59 72.74,-171.99 74.26,-170.38 76.24,-167.91 78.22,-165.43 80.14,-163.26 82.06,-161.08 80.10,-158.73 78.14,-156.37 77.18,-159.18 76.21,-161.98 76.24,-165.05 76.27,-168.12 76.31,-171.52 76.35,-174.93 76.06,-177.94 75.76,-180.95 75.04,-184.11 74.32,-187.27 73.53,-192.50 72.74,-197.73 72.37,-200.51 72.01,-203.29 71.80,-206.25 71.58,-209.21 71.53,-212.31 71.47,-215.42 71.47,-218.43 71.47,-221.45 71.52,-224.62 71.57,-227.78 71.68,-231.20 71.79,-234.61 71.82,-237.67 71.85,-240.74 71.82,-243.44 71.80,-246.14 71.77,-248.78 71.74,-251.42 71.70,-253.86 71.66,-256.30 71.60,-258.49 71.54,-260.67 71.39,-264.19 71.25,-267.70 71.11,-269.87 70.98,-272.04 70.82,-274.32 70.66,-276.60 70.51,-278.87 70.35,-281.13 70.84,-283.92 71.33,-286.71 74.29,-288.54 77.25,-290.37 80.52,-288.64 83.78,-286.90 85.41,-284.22 87.04,-281.53 88.18,-279.35 89.32,-277.17 90.47,-274.74 91.62,-272.31 92.57,-269.95 93.52,-267.59 94.76,-264.45 96.00,-261.31 97.30,-258.49 98.60,-255.67 100.15,-252.79 101.70,-249.91 103.70,-246.29 105.69,-242.67 106.97,-240.44 108.24,-238.20 109.60,-236.01 110.96,-233.81 112.41,-231.59 113.85,-229.37 115.34,-227.16 116.82,-224.94 118.24,-222.87 119.65,-220.80 121.15,-218.61 122.65,-216.42 124.20,-214.19 125.74,-211.96 127.11,-210.14 128.48,-208.33 130.10,-206.07 131.72,-203.81 133.26,-201.74 134.81,-199.68 137.75,-195.63 140.70,-191.57 143.04,-188.35 145.38,-185.13 147.65,-181.87 149.91,-178.61 151.97,-175.24 154.03,-171.86 155.81,-168.73 157.59,-165.61 159.12,-162.86 160.65,-160.11 162.09,-157.39 163.53,-154.68 164.89,-151.85 166.24,-149.01 167.43,-146.34 168.63,-143.67 169.67,-141.11 170.72,-138.55 171.77,-136.11 172.81,-133.68 173.88,-130.82 174.95,-127.96 175.90,-125.35 176.84,-122.75 177.77,-120.17 178.69,-117.60 179.57,-115.27 180.45,-112.95 181.32,-110.48 182.18,-108.01 182.95,-105.89 183.72,-103.78 184.43,-101.46 185.15,-99.15 185.99,-96.65 186.84,-94.14 187.71,-91.96 188.57,-89.77 189.61,-87.45 190.65,-85.12 191.54,-82.65 192.43,-80.19 192.90,-77.71 193.37,-75.24 188.62,-71.94 183.87,-68.64 186.92,-71.02 189.96,-73.40 189.44,-72.68 188.91,-71.97 188.22,-71.39 187.54,-70.82 186.74,-70.43 185.93,-70.04 185.06,-69.86 184.19,-69.67 183.30,-69.70 182.41,-69.72 181.55,-69.96 180.69,-70.20 179.91,-70.64 179.14,-71.08 178.49,-71.69 177.84,-72.30 177.35,-73.05 176.87,-73.80 176.58,-74.65 176.29,-75.49 176.21,-76.38 176.13,-77.26 176.26,-78.15 176.40,-79.03 176.74,-79.85 177.08,-80.68 177.11,-76.98 177.15,-73.28 176.72,-74.40 176.28,-75.51 176.23,-76.71 176.18,-77.91 176.51,-79.06 176.84,-80.21 177.52,-81.19 178.20,-82.18 179.16,-82.89 180.12,-83.61 181.26,-83.98 182.39,-84.35 183.59,-84.34 184.79,-84.33 185.92,-83.93 187.05,-83.54 187.99,-82.81 188.94,-82.08 189.60,-81.08 190.27,-80.08 190.57,-78.93 190.88,-77.77 190.81,-76.57 190.73,-75.38 190.28,-74.27 189.83,-73.16 189.04,-72.26 188.26,-71.35 187.23,-70.75 186.20,-70.14 185.02,-69.89 183.85,-69.65 182.66,-69.79 181.48,-69.93 180.39,-70.44 179.31,-70.95 178.45,-71.79 177.59,-72.62 177.04,-73.68 176.49,-74.74 176.31,-75.93 176.12,-77.11 176.33,-78.29 176.53,-79.47 177.10,-80.52 177.68,-81.57 178.55,-82.39 179.43,-83.20 180.52,-83.69 181.61,-84.18 182.80,-84.30 183.99,-84.42 185.16,-84.15 186.33,-83.88 187.35,-83.26 188.37,-82.63 189.17,-78.02 189.97,-73.40 189.44,-72.68 188.91,-71.97 188.22,-71.40 187.54,-70.82 186.74,-70.43 185.93,-70.04 185.06,-69.86 184.19,-69.67 183.30,-69.70 182.41,-69.72 181.55,-69.96 180.69,-70.20 179.91,-70.64 179.14,-71.08 178.49,-71.69 177.84,-72.30 177.35,-73.05 176.87,-73.80 176.58,-74.64 176.29,-75.49 176.21,-76.38 176.13,-77.26 176.26,-78.15 176.40,-79.03 176.74,-79.85 177.08,-80.67 182.66,-81.11 188.24,-81.54 183.76,-77.34 179.28,-73.13 178.50,-75.73 177.71,-78.33 176.71,-80.92 175.71,-83.52 174.85,-85.93 173.99,-88.34 173.17,-90.94 172.35,-93.53 171.56,-96.32 170.77,-99.12 169.94,-101.54 169.11,-103.97 168.41,-106.10 167.71,-108.22 166.85,-110.64 165.98,-113.05 165.08,-115.69 164.17,-118.32 163.28,-120.91 162.38,-123.50 161.49,-126.02 160.60,-128.54 159.60,-131.05 158.60,-133.55 157.68,-136.02 156.77,-138.49 155.56,-141.37 154.36,-144.25 153.38,-146.53 152.40,-148.82 151.05,-151.59 149.70,-154.37 148.26,-157.23 146.82,-160.08 145.33,-162.96 143.84,-165.84 142.02,-169.06 140.20,-172.29 138.10,-175.53 136.01,-178.78 133.93,-181.96 131.85,-185.14 128.93,-189.06 126.00,-192.97 124.39,-195.06 122.78,-197.14 121.08,-199.33 119.38,-201.52 117.96,-203.43 116.54,-205.33 114.90,-207.52 113.26,-209.70 111.65,-211.86 110.04,-214.02 108.58,-216.03 107.12,-218.04 105.49,-220.21 103.85,-222.38 102.20,-224.59 100.55,-226.80 98.92,-229.05 97.28,-231.31 95.74,-233.55 94.20,-235.80 92.92,-237.79 91.65,-239.79 89.71,-243.09 87.77,-246.38 86.29,-249.12 84.81,-251.87 83.84,-254.22 82.86,-256.57 82.12,-258.57 81.38,-260.56 80.58,-262.66 79.79,-264.75 78.98,-266.75 78.17,-268.76 77.09,-270.94 76.01,-273.13 75.25,-275.54 74.49,-277.95 77.29,-278.04 80.10,-278.14 81.65,-279.63 83.20,-281.13 83.05,-278.87 82.89,-276.60 82.73,-274.33 82.58,-272.07 82.45,-269.89 82.33,-267.72 82.19,-264.20 82.05,-260.68 82.00,-258.50 81.94,-256.31 81.90,-253.87 81.86,-251.43 81.84,-248.80 81.82,-246.16 81.81,-243.46 81.79,-240.77 81.84,-237.71 81.89,-234.66 82.03,-231.29 82.18,-227.91 82.30,-224.82 82.43,-221.73 82.58,-218.84 82.73,-215.95 82.95,-213.14 83.17,-210.34 83.50,-207.73 83.83,-205.12 84.27,-202.69 84.71,-200.25 86.08,-195.21 87.44,-190.16 88.26,-186.73 89.07,-183.30 89.44,-181.14 89.81,-178.99 89.95,-175.16 90.10,-171.34 90.13,-168.13 90.15,-164.92 90.14,-161.96 90.14,-159.00 89.88,-155.85 89.63,-152.71 88.34,-150.83 87.05,-148.94 83.57,-147.53 80.09,-146.13 78.05,-147.32 76.01,-148.52 74.48,-150.04 72.95,-151.56 71.37,-153.58 69.79,-155.61 67.89,-158.09 65.99,-160.57 64.05,-162.99 62.10,-165.41 60.07,-167.74 58.03,-170.07 56.04,-172.16 54.05,-174.25 51.64,-176.81 49.23,-179.38 47.60,-180.88 45.98,-182.38 44.28,-183.96 42.59,-185.55 40.89,-187.17 39.20,-188.80 37.40,-190.45 35.59,-192.10 33.93,-193.66 32.27,-195.23 30.39,-197.00 28.52,-198.76 26.17,-200.80 23.81,-202.85 21.48,-204.89 19.14,-206.93 16.86,-208.99 14.58,-211.04 12.44,-213.07 10.30,-215.10 8.47,-216.92 6.64,-218.75 3.62,-222.00 0.61,-225.26 -2.09,-228.45 -4.80,-231.65 -6.80,-234.54 -8.80,-237.44 -10.08,-239.83 -11.36,-242.23 -12.17,-244.33 -12.99,-246.44 -14.07,-248.69 -15.15,-250.93 -16.48,-253.07 -17.80,-255.20 -18.81,-257.76 -19.82,-260.33 -18.79,-263.16 -17.75,-265.99 -12.74,-266.53 -7.73,-267.07 -6.47,-264.49 -5.22,-261.90 -4.72,-259.65 -4.22,-257.40 -3.88,-254.78 -3.55,-252.15 -3.16,-249.33 -2.76,-246.51 -2.37,-243.11 -1.98,-239.71 -1.58,-236.28 -1.18,-232.85 -0.78,-229.18 -0.38,-225.51 -0.00,-223.36 0.36,-221.20 0.99,-218.37 1.61,-215.54 2.34,-211.52 3.07,-207.50 3.41,-204.05 3.74,-200.61 3.96,-196.65 4.17,-192.69 4.23,-190.56 4.28,-188.42 4.15,-186.04 4.01,-183.66 3.87,-181.06 3.72,-178.46 3.55,-175.80 3.38,-173.13 3.19,-170.35 2.99,-167.56 2.87,-163.95 2.75,-160.34 2.70,-156.35 2.64,-152.35 2.64,-148.03 2.64,-143.71 2.65,-137.80 2.65,-131.89 2.66,-126.21 2.67,-120.53 2.67,-114.87 2.68,-109.20 2.69,-102.15 2.71,-95.10 2.72,-87.94 2.74,-80.77 2.76,-74.69 2.78,-68.60 2.81,-62.29 2.84,-55.99 2.88,-49.23 2.92,-42.47 2.98,-37.29 3.04,-32.12 3.12,-27.67 3.19,-23.21 3.30,-18.77 3.41,-14.32 3.44,-10.42 3.47,-6.51 3.35,-3.25 3.23,0 3.18,0.38 3.13,0.77 3.00,1.13 2.86,1.50 2.64,1.82 2.41,2.14 2.12,2.40 1.83,2.66 1.49,2.84 1.14,3.02 0.76,3.11 0.38,3.20 -0.00,3.20 -0.38,3.20 -0.76,3.11 -1.14,3.02 -1.49,2.84 -1.83,2.66 -2.12,2.40 -2.42,2.14 -2.64,1.82 -2.86,1.50 -3.00,1.13 -3.13,0.77 -3.18,0.38 -3.23,-0.00 -3.23,-0.00 L -3.23,0 Z"></path></g><g transform="translate(212.10546875 179.01171875) rotate(0 17.345703125 49.830078125)" stroke="none"><path fill="#e03131" d="M 4.90,0.23 Q 4.90,0.23 4.91,2.08 4.91,3.93 5.24,8.11 5.57,12.29 7.02,16.45 8.47,20.60 9.38,22.89 10.29,25.18 11.26,27.83 12.23,30.47 13.26,32.98 14.28,35.50 15.40,38.31 16.51,41.12 17.68,44.22 18.85,47.32 19.92,49.80 20.99,52.28 22.01,54.53 23.04,56.77 24.16,59.40 25.28,62.03 26.36,64.67 27.43,67.31 28.34,69.53 29.25,71.76 31.01,75.53 32.76,79.30 34.30,82.69 35.83,86.08 36.95,88.68 38.06,91.28 39.54,95.28 41.03,99.29 41.01,100.28 40.99,101.26 40.66,102.19 40.33,103.12 39.72,103.89 39.11,104.67 38.29,105.21 37.46,105.75 36.51,105.99 35.56,106.24 34.57,106.17 33.59,106.10 32.68,105.72 31.77,105.34 31.03,104.69 30.29,104.04 29.80,103.19 29.30,102.33 29.11,101.37 28.91,100.40 29.03,99.42 29.16,98.45 29.59,97.56 30.01,96.67 30.70,95.97 31.39,95.26 32.27,94.82 33.15,94.37 34.13,94.23 35.10,94.08 36.07,94.26 37.04,94.43 37.90,94.91 38.77,95.39 39.43,96.11 40.10,96.84 40.50,97.74 40.90,98.64 40.99,99.63 41.08,100.61 40.85,101.57 40.62,102.53 40.10,103.36 39.58,104.20 38.81,104.82 38.05,105.45 37.13,105.80 36.21,106.15 35.22,106.18 34.24,106.22 33.29,105.94 32.35,105.66 31.54,105.09 30.73,104.53 30.15,103.73 29.57,102.94 29.27,102.00 28.97,101.06 28.97,101.06 28.97,101.06 28.05,98.29 27.13,95.53 26.28,92.93 25.42,90.33 24.16,86.99 22.91,83.65 22.09,81.67 21.28,79.68 20.45,77.58 19.62,75.47 18.84,73.30 18.05,71.12 17.02,68.58 15.98,66.04 14.85,63.44 13.71,60.83 12.75,58.51 11.78,56.20 10.71,53.64 9.64,51.08 8.32,48.09 7.00,45.09 5.79,42.32 4.57,39.55 3.43,36.88 2.30,34.22 1.30,31.65 0.31,29.08 -0.59,26.71 -1.51,24.34 -2.45,21.76 -3.40,19.19 -4.16,16.34 -4.92,13.49 -5.18,10.74 -5.44,7.99 -5.36,5.71 -5.27,3.43 -5.09,1.59 -4.90,-0.23 -4.80,-0.82 -4.70,-1.40 -4.47,-1.95 -4.23,-2.49 -3.87,-2.96 -3.51,-3.43 -3.05,-3.80 -2.59,-4.17 -2.05,-4.42 -1.51,-4.67 -0.93,-4.78 -0.35,-4.90 0.23,-4.87 0.82,-4.84 1.39,-4.67 1.96,-4.50 2.47,-4.20 2.98,-3.90 3.40,-3.48 3.83,-3.07 4.14,-2.57 4.45,-2.06 4.64,-1.50 4.82,-0.94 4.86,-0.35 4.90,0.23 4.90,0.23 L 4.90,0.23 Z"></path></g><g transform="translate(201.203125 143.3984375) rotate(0 12.189453125 -7.130859375)" stroke="none"><path fill="#e03131" d="M 0,-5.13 Q 0,-5.13 1.42,-5.22 2.84,-5.31 5.34,-4.95 7.83,-4.59 10.23,-3.81 12.63,-3.02 14.78,-2.28 16.93,-1.53 19.31,-0.59 21.69,0.34 20.75,2.39 19.81,4.45 18.30,2.67 16.79,0.90 15.55,-1.00 14.32,-2.91 12.70,-5.00 11.08,-7.09 9.43,-9.07 7.78,-11.05 5.92,-13.13 4.06,-15.20 3.41,-15.70 2.75,-16.19 1.89,-16.93 1.04,-17.67 0.46,-18.65 -0.10,-19.63 -0.34,-20.74 -0.57,-21.85 -0.43,-22.98 -0.30,-24.11 0.18,-25.13 0.67,-26.16 1.45,-26.97 2.24,-27.79 3.25,-28.31 4.26,-28.83 5.38,-29.00 6.50,-29.17 7.62,-28.98 8.74,-28.78 9.73,-28.24 10.73,-27.70 11.50,-26.87 12.27,-26.03 12.74,-25.00 13.21,-23.96 13.32,-22.83 13.43,-21.71 13.17,-20.60 12.92,-19.49 12.32,-18.53 11.73,-17.56 10.85,-16.84 9.98,-16.11 8.92,-15.70 7.86,-15.29 6.73,-15.24 5.60,-15.20 4.51,-15.51 3.42,-15.83 2.48,-16.47 1.55,-17.12 0.87,-18.03 0.20,-18.94 -0.14,-20.02 -0.49,-21.10 -0.48,-22.23 -0.47,-23.37 -0.10,-24.44 0.27,-25.51 0.96,-26.41 1.66,-27.30 2.61,-27.93 3.55,-28.55 4.65,-28.85 5.74,-29.14 6.88,-29.07 8.01,-28.99 9.06,-28.56 10.11,-28.13 10.11,-28.13 10.11,-28.13 12.78,-25.75 15.45,-23.37 16.93,-21.65 18.41,-19.93 20.15,-17.82 21.89,-15.72 23.87,-13.17 25.85,-10.62 27.74,-7.54 29.64,-4.46 30.58,-1.12 31.53,2.20 31.52,4.46 31.52,6.71 30.23,9.03 28.94,11.35 26.24,13.00 23.55,14.66 21.36,14.22 19.17,13.78 17.19,12.71 15.21,11.63 13.17,10.58 11.13,9.53 9.15,8.49 7.17,7.45 5.00,6.38 2.83,5.31 1.41,5.22 0,5.13 -0.61,5.05 -1.22,4.98 -1.80,4.76 -2.38,4.54 -2.89,4.19 -3.40,3.84 -3.81,3.37 -4.22,2.91 -4.51,2.36 -4.79,1.81 -4.94,1.21 -5.09,0.61 -5.09,-0.00 -5.09,-0.61 -4.94,-1.21 -4.79,-1.82 -4.51,-2.36 -4.22,-2.91 -3.81,-3.37 -3.40,-3.84 -2.89,-4.19 -2.38,-4.54 -1.80,-4.76 -1.22,-4.98 -0.61,-5.05 0.00,-5.13 0.00,-5.13 L 0,-5.13 Z"></path></g><g transform="translate(251.125 148.61328125) rotate(0 13.04296875 62.880859375)" stroke="none"><path fill="#e03131" d="M 4.36,0 Q 4.36,0 4.46,2.45 4.56,4.90 4.75,9.12 4.95,13.34 4.85,17.21 4.74,21.09 4.74,25.42 4.74,29.75 5.14,33.07 5.53,36.38 5.99,39.51 6.45,42.64 6.84,45.70 7.23,48.76 7.74,51.63 8.25,54.49 8.91,57.11 9.57,59.74 10.15,62.48 10.73,65.22 11.15,67.78 11.58,70.34 12.39,73.88 13.20,77.41 14.18,80.71 15.16,84.01 16.00,86.96 16.84,89.90 17.73,92.58 18.62,95.26 19.41,97.54 20.20,99.83 21.12,102.39 22.04,104.95 23.03,107.37 24.02,109.78 25.16,111.71 26.29,113.63 27.70,115.54 29.11,117.45 29.80,118.86 30.49,120.27 30.88,121.03 31.26,121.78 31.46,122.61 31.66,123.43 31.65,124.28 31.64,125.13 31.44,125.96 31.23,126.78 30.82,127.53 30.42,128.28 29.86,128.91 29.29,129.54 28.58,130.02 27.88,130.50 27.08,130.79 26.29,131.09 25.44,131.18 24.60,131.28 23.76,131.17 22.91,131.06 22.12,130.75 21.33,130.44 20.64,129.96 19.94,129.47 19.38,128.83 18.82,128.19 18.51,127.63 18.21,127.07 17.92,125.97 17.64,124.86 17.72,123.73 17.80,122.59 18.24,121.54 18.68,120.49 19.44,119.63 20.19,118.78 21.18,118.21 22.17,117.64 23.28,117.41 24.40,117.19 25.53,117.33 26.66,117.47 27.69,117.97 28.72,118.47 29.53,119.27 30.34,120.07 30.86,121.08 31.37,122.10 31.54,123.23 31.70,124.36 31.50,125.48 31.29,126.60 30.74,127.60 30.19,128.60 29.34,129.37 28.50,130.13 27.46,130.59 26.42,131.05 25.28,131.16 24.14,131.26 23.04,130.99 21.93,130.73 20.96,130.12 19.99,129.52 19.27,128.63 18.55,127.75 18.15,126.68 17.75,125.62 17.70,124.48 17.66,123.34 17.99,122.25 18.31,121.15 18.97,120.22 19.63,119.29 20.55,118.62 21.47,117.94 22.56,117.60 23.64,117.25 24.78,117.28 25.92,117.30 27.00,117.68 28.07,118.06 28.97,118.77 29.86,119.48 30.17,119.87 30.49,120.27 30.87,121.03 31.26,121.78 31.46,122.61 31.66,123.43 31.65,124.28 31.64,125.13 31.44,125.96 31.23,126.78 30.83,127.53 30.42,128.28 29.86,128.91 29.29,129.54 28.59,130.02 27.88,130.49 27.09,130.79 26.29,131.09 25.44,131.18 24.60,131.28 23.76,131.17 22.92,131.06 22.12,130.75 21.33,130.44 20.64,129.96 19.94,129.47 19.38,128.83 18.82,128.19 18.30,126.82 17.77,125.45 16.57,123.44 15.37,121.42 14.19,119.13 13.01,116.83 12.10,114.78 11.18,112.74 10.62,110.69 10.07,108.64 9.33,106.15 8.59,103.66 7.94,101.20 7.30,98.74 6.50,95.60 5.71,92.46 5.18,89.64 4.66,86.81 3.88,83.02 3.10,79.22 2.65,75.41 2.19,71.59 1.96,69.25 1.73,66.90 1.31,64.30 0.90,61.70 0.31,58.77 -0.27,55.85 -0.71,52.76 -1.15,49.67 -1.42,46.69 -1.68,43.72 -2.06,40.52 -2.44,37.33 -2.86,33.77 -3.28,30.21 -3.78,25.78 -4.29,21.35 -4.62,17.34 -4.95,13.34 -4.75,9.12 -4.56,4.90 -4.46,2.45 -4.36,0 -4.30,-0.52 -4.23,-1.04 -4.05,-1.53 -3.86,-2.02 -3.56,-2.46 -3.26,-2.89 -2.87,-3.24 -2.47,-3.59 -2.01,-3.83 -1.54,-4.08 -1.03,-4.20 -0.52,-4.33 0.00,-4.33 0.52,-4.33 1.03,-4.20 1.54,-4.08 2.01,-3.83 2.47,-3.59 2.87,-3.24 3.26,-2.89 3.56,-2.46 3.86,-2.02 4.05,-1.53 4.23,-1.04 4.30,-0.52 4.36,0.00 4.36,0.00 L 4.36,0 Z"></path></g><g transform="translate(256.48046875 145.2265625) rotate(0 58.35546875 41.62890625)" stroke="none"><path fill="#e03131" d="M 0.17,-4.73 Q 0.17,-4.73 2.15,-4.76 4.14,-4.79 7.58,-3.79 11.02,-2.80 13.82,-1.67 16.63,-0.55 18.63,0.32 20.63,1.19 22.67,2.27 24.71,3.35 26.81,4.67 28.91,5.98 31.14,7.45 33.37,8.91 36.00,10.73 38.63,12.55 41.61,14.87 44.59,17.19 47.61,19.49 50.63,21.79 54.85,24.90 59.07,28.02 63.42,31.33 67.77,34.65 70.74,36.67 73.71,38.69 76.10,40.18 78.48,41.67 80.55,42.94 82.61,44.21 85.52,45.96 88.43,47.71 91.03,49.06 93.63,50.42 95.64,51.75 97.65,53.07 99.30,54.53 100.94,55.98 103.00,58.08 105.05,60.17 106.70,61.92 108.36,63.66 110.25,65.58 112.14,67.51 113.73,69.21 115.32,70.92 116.95,72.80 118.59,74.67 120.04,76.35 121.48,78.04 121.07,77.35 120.66,76.66 121.11,77.38 121.57,78.11 121.83,78.92 122.10,79.73 122.17,80.58 122.23,81.44 122.09,82.28 121.95,83.12 121.61,83.91 121.27,84.69 120.76,85.37 120.24,86.05 119.58,86.59 118.91,87.13 118.14,87.49 117.37,87.85 116.53,88.02 115.69,88.19 114.84,88.15 113.98,88.11 113.16,87.87 112.35,87.63 111.61,87.20 110.87,86.77 110.26,86.17 109.64,85.58 109.02,84.42 108.39,83.26 108.23,82.12 108.07,80.99 108.27,79.86 108.48,78.73 109.03,77.73 109.59,76.73 110.44,75.95 111.28,75.18 112.33,74.72 113.38,74.26 114.53,74.15 115.67,74.05 116.78,74.32 117.90,74.59 118.87,75.20 119.84,75.81 120.57,76.69 121.29,77.58 121.70,78.65 122.10,79.73 122.14,80.87 122.18,82.02 121.85,83.12 121.53,84.22 120.87,85.15 120.20,86.09 119.28,86.77 118.35,87.44 117.26,87.79 116.17,88.13 115.02,88.11 113.87,88.09 112.79,87.70 111.71,87.32 110.81,86.61 109.91,85.90 109.29,84.94 108.66,83.97 108.38,82.86 108.09,81.75 108.18,80.61 108.26,79.47 108.70,78.41 109.15,77.35 109.91,76.49 110.67,75.63 111.66,75.06 112.65,74.49 113.78,74.26 114.90,74.04 116.04,74.18 117.18,74.33 118.21,74.83 119.24,75.33 120.06,76.13 120.87,76.94 120.77,76.80 120.66,76.66 121.11,77.38 121.57,78.11 121.83,78.92 122.10,79.73 122.17,80.58 122.23,81.43 122.09,82.28 121.95,83.12 121.61,83.90 121.27,84.69 120.76,85.37 120.24,86.05 119.58,86.59 118.91,87.13 118.14,87.49 117.37,87.85 116.53,88.02 115.69,88.19 114.84,88.15 113.98,88.11 113.17,87.87 112.35,87.63 111.61,87.20 110.87,86.77 110.26,86.17 109.64,85.58 109.22,85.09 108.80,84.61 107.36,82.78 105.93,80.95 104.26,78.90 102.59,76.85 100.84,74.85 99.08,72.86 97.72,71.08 96.36,69.30 94.81,67.24 93.25,65.19 91.76,63.40 90.27,61.60 88.42,59.93 86.58,58.25 84.75,56.83 82.92,55.41 80.36,53.24 77.80,51.08 75.92,49.59 74.03,48.09 71.82,46.39 69.60,44.69 66.59,42.62 63.58,40.54 59.11,37.58 54.65,34.62 50.10,31.87 45.55,29.11 42.29,27.06 39.04,25.00 36.03,23.07 33.03,21.14 30.29,19.47 27.56,17.79 25.34,16.34 23.11,14.89 21.31,13.67 19.51,12.45 16.20,10.52 12.88,8.59 10.49,7.59 8.10,6.59 5.89,5.83 3.69,5.07 1.75,4.90 -0.17,4.73 -0.73,4.64 -1.30,4.55 -1.82,4.33 -2.35,4.11 -2.81,3.77 -3.27,3.43 -3.63,2.98 -3.99,2.54 -4.24,2.03 -4.49,1.51 -4.60,0.95 -4.72,0.39 -4.70,-0.17 -4.68,-0.74 -4.52,-1.29 -4.36,-1.84 -4.08,-2.33 -3.80,-2.83 -3.40,-3.24 -3.01,-3.66 -2.52,-3.96 -2.04,-4.27 -1.50,-4.45 -0.96,-4.64 -0.39,-4.68 0.17,-4.73 0.17,-4.73 L 0.17,-4.73 Z"></path></g><g transform="translate(340.8359375 77.64453125) rotate(0 14.341796875 76.12890625)" stroke="none"><path fill="#e03131" d="M 4.87,0 Q 4.87,0 4.93,2.36 5.00,4.73 4.87,8.29 4.74,11.84 4.69,15.12 4.64,18.41 4.66,21.38 4.67,24.36 4.69,27.23 4.72,30.11 4.76,32.83 4.80,35.55 4.87,37.88 4.94,40.20 5.10,44.19 5.26,48.18 5.25,53.31 5.24,58.44 5.29,60.62 5.34,62.81 5.63,66.82 5.91,70.82 6.31,73.33 6.70,75.84 7.47,79.23 8.23,82.62 8.96,85.71 9.70,88.79 10.41,91.78 11.12,94.77 11.83,97.97 12.54,101.18 13.25,104.03 13.96,106.88 14.78,109.64 15.59,112.39 16.27,114.44 16.95,116.49 17.66,118.56 18.38,120.63 19.46,123.18 20.53,125.72 21.78,128.30 23.03,130.89 24.15,132.90 25.26,134.91 26.25,136.80 27.23,138.70 28.49,140.81 29.75,142.93 26.96,144.58 24.18,146.24 25.20,145.67 26.22,145.10 27.37,144.89 28.52,144.67 29.68,144.84 30.84,145.00 31.89,145.53 32.93,146.05 33.76,146.89 34.58,147.72 35.09,148.77 35.61,149.82 35.76,150.98 35.91,152.14 35.68,153.29 35.45,154.44 34.87,155.45 34.29,156.47 33.42,157.25 32.54,158.02 31.46,158.48 30.38,158.94 29.22,159.02 28.05,159.11 26.92,158.82 25.78,158.53 24.80,157.90 23.82,157.26 23.09,156.35 22.36,155.43 21.96,154.33 21.57,153.23 21.54,152.06 21.52,150.89 21.87,149.77 22.22,148.65 22.90,147.71 23.59,146.76 24.55,146.08 25.50,145.41 26.62,145.07 27.74,144.73 28.91,144.77 30.08,144.81 31.18,145.22 32.28,145.63 33.18,146.37 34.09,147.11 34.72,148.10 35.34,149.09 35.62,150.22 35.89,151.36 35.79,152.53 35.69,153.69 35.22,154.77 34.75,155.84 33.96,156.70 33.18,157.57 33.18,157.57 33.18,157.57 26.40,155.40 19.62,153.23 18.12,151.08 16.62,148.94 15.23,146.30 13.84,143.65 12.75,141.38 11.66,139.10 10.52,136.66 9.39,134.21 8.37,131.67 7.35,129.12 6.61,127.03 5.87,124.93 5.20,122.67 4.53,120.41 3.86,117.97 3.19,115.53 2.50,112.81 1.81,110.10 1.11,106.86 0.42,103.61 -0.15,100.41 -0.74,97.21 -1.28,94.20 -1.83,91.19 -2.37,88.00 -2.91,84.81 -3.48,81.22 -4.04,77.64 -4.55,74.76 -5.05,71.88 -5.20,67.35 -5.34,62.81 -5.29,60.62 -5.24,58.44 -5.25,53.31 -5.26,48.18 -5.10,44.19 -4.94,40.20 -4.87,37.88 -4.80,35.55 -4.76,32.83 -4.72,30.11 -4.69,27.23 -4.67,24.36 -4.66,21.38 -4.64,18.41 -4.69,15.12 -4.74,11.84 -4.87,8.29 -5.00,4.73 -4.93,2.36 -4.87,0 -4.80,-0.58 -4.73,-1.16 -4.52,-1.71 -4.31,-2.26 -3.98,-2.74 -3.64,-3.23 -3.20,-3.62 -2.76,-4.01 -2.24,-4.28 -1.72,-4.55 -1.15,-4.69 -0.58,-4.83 0.00,-4.83 0.58,-4.83 1.15,-4.69 1.72,-4.55 2.24,-4.28 2.76,-4.01 3.20,-3.62 3.64,-3.23 3.98,-2.74 4.31,-2.26 4.52,-1.71 4.73,-1.16 4.80,-0.58 4.87,0.00 4.87,0.00 L 4.87,0 Z"></path></g><g transform="translate(388.69140625 111.5390625) rotate(0 13.603515625 49.205078125)" stroke="none"><path fill="#e03131" d="M 5.33,0 Q 5.33,0 5.36,2.37 5.38,4.74 5.49,8.59 5.59,12.45 5.71,15.54 5.82,18.62 5.91,21.62 6.01,24.61 6.10,26.79 6.19,28.97 6.30,31.60 6.42,34.24 6.51,36.90 6.60,39.57 6.67,41.96 6.74,44.36 6.94,46.61 7.14,48.87 7.70,51.05 8.26,53.23 9.22,55.55 10.19,57.86 11.23,60.12 12.28,62.38 13.51,64.46 14.75,66.53 15.99,68.43 17.23,70.33 18.70,72.32 20.17,74.31 21.49,76.25 22.81,78.19 24.36,80.74 25.91,83.29 27.06,85.25 28.22,87.21 29.64,89.29 31.06,91.37 32.28,93.06 33.50,94.74 33.86,95.59 34.21,96.44 34.35,97.35 34.49,98.26 34.41,99.18 34.33,100.10 34.03,100.97 33.73,101.84 33.24,102.61 32.74,103.39 32.07,104.02 31.40,104.65 30.60,105.11 29.80,105.56 28.91,105.81 28.03,106.06 27.11,106.09 26.18,106.12 25.28,105.93 24.38,105.74 23.55,105.34 22.73,104.94 22.02,104.35 21.31,103.76 20.76,103.02 20.21,102.28 24.18,104.16 28.14,106.04 26.90,106.05 25.67,106.06 24.49,105.67 23.32,105.28 22.33,104.54 21.34,103.80 20.64,102.78 19.94,101.76 19.61,100.57 19.27,99.38 19.33,98.15 19.39,96.91 19.84,95.76 20.29,94.61 21.08,93.66 21.88,92.72 22.93,92.07 23.99,91.43 25.20,91.16 26.40,90.88 27.63,91.01 28.86,91.14 29.98,91.65 31.11,92.16 32.01,93.01 32.91,93.85 33.50,94.94 34.08,96.03 34.29,97.25 34.50,98.47 34.30,99.69 34.11,100.91 33.54,102.00 32.97,103.10 32.07,103.95 31.18,104.81 30.06,105.33 28.94,105.86 27.72,106.00 26.49,106.14 25.28,105.88 24.07,105.62 23.01,104.99 21.95,104.36 21.14,103.42 20.33,102.49 19.87,101.34 19.41,100.19 19.33,98.96 19.26,97.73 19.58,96.53 19.91,95.34 20.59,94.31 21.28,93.29 22.26,92.53 23.24,91.78 28.37,93.26 33.50,94.74 33.86,95.59 34.21,96.44 34.35,97.35 34.49,98.26 34.41,99.18 34.33,100.10 34.03,100.97 33.74,101.84 33.24,102.61 32.74,103.39 32.07,104.02 31.40,104.65 30.60,105.11 29.80,105.56 28.91,105.81 28.03,106.06 27.11,106.09 26.19,106.12 25.28,105.93 24.38,105.74 23.55,105.34 22.73,104.94 22.02,104.35 21.31,103.76 20.76,103.02 20.21,102.28 19.00,100.62 17.78,98.96 16.43,96.86 15.08,94.75 14.01,92.89 12.93,91.03 11.81,89.02 10.70,87.02 9.50,85.04 8.31,83.07 7.06,81.32 5.81,79.56 4.20,77.08 2.60,74.59 1.44,72.58 0.29,70.56 -0.80,68.40 -1.90,66.24 -2.82,63.71 -3.74,61.17 -4.59,58.71 -5.43,56.25 -5.90,53.69 -6.38,51.13 -6.56,47.74 -6.74,44.36 -6.67,41.96 -6.60,39.57 -6.51,36.90 -6.42,34.24 -6.30,31.60 -6.19,28.97 -6.10,26.79 -6.01,24.61 -5.91,21.62 -5.82,18.62 -5.71,15.54 -5.59,12.45 -5.49,8.59 -5.38,4.74 -5.36,2.37 -5.33,0 -5.25,-0.63 -5.18,-1.27 -4.95,-1.87 -4.72,-2.48 -4.35,-3.00 -3.99,-3.53 -3.51,-3.96 -3.03,-4.39 -2.46,-4.69 -1.89,-4.98 -1.26,-5.14 -0.64,-5.29 0.00,-5.29 0.64,-5.29 1.26,-5.14 1.89,-4.98 2.46,-4.69 3.03,-4.39 3.51,-3.96 3.99,-3.53 4.36,-3.00 4.72,-2.47 4.95,-1.87 5.18,-1.27 5.25,-0.63 5.33,0.00 5.33,0.00 L 5.33,0 Z"></path></g><g transform="translate(380.21875 66.51171875) rotate(0 9.41796875 2.841796875)" stroke="none"><path fill="#e03131" d="M 2.04,-4.70 Q 2.04,-4.70 4.18,-3.83 6.32,-2.95 8.47,-2.60 10.61,-2.25 13.26,-2.06 15.90,-1.88 19.48,-0.33 23.06,1.20 23.67,1.99 24.27,2.79 24.59,3.73 24.91,4.68 24.91,5.67 24.91,6.67 24.60,7.61 24.28,8.56 23.68,9.35 23.07,10.15 22.25,10.71 21.42,11.27 20.46,11.54 19.50,11.80 18.51,11.75 17.51,11.70 16.59,11.33 15.66,10.96 14.90,10.32 14.14,9.67 13.62,8.82 13.11,7.96 12.89,6.99 12.68,6.02 12.78,5.03 12.89,4.03 13.31,3.13 13.73,2.22 14.41,1.50 15.10,0.78 15.98,0.31 16.86,-0.15 17.84,-0.31 18.83,-0.47 19.81,-0.31 20.79,-0.15 21.68,0.30 22.56,0.77 23.24,1.49 23.93,2.22 24.35,3.12 24.77,4.03 24.88,5.02 24.98,6.01 24.77,6.98 24.56,7.96 24.04,8.81 23.53,9.66 22.77,10.31 22.01,10.96 21.09,11.33 20.16,11.70 19.16,11.75 18.17,11.81 17.21,11.54 16.25,11.27 15.42,10.71 14.60,10.16 14.60,10.16 14.60,10.16 13.62,9.92 12.65,9.69 9.92,9.12 7.18,8.54 4.67,7.59 2.15,6.63 0.05,5.67 -2.04,4.70 -2.57,4.39 -3.11,4.08 -3.55,3.65 -3.99,3.21 -4.32,2.69 -4.65,2.16 -4.84,1.57 -5.03,0.99 -5.08,0.37 -5.12,-0.24 -5.02,-0.85 -4.92,-1.46 -4.67,-2.03 -4.42,-2.59 -4.05,-3.09 -3.67,-3.58 -3.19,-3.97 -2.71,-4.35 -2.15,-4.61 -1.59,-4.88 -0.98,-5.00 -0.37,-5.11 0.24,-5.09 0.85,-5.06 1.45,-4.88 2.04,-4.70 2.04,-4.70 L 2.04,-4.70 Z"></path></g><g transform="translate(460.05859375 91.03515625) rotate(0 58.21875 30.8359375)" stroke="none"><path fill="#e03131" d="M 4.66,0.12 Q 4.66,0.12 4.62,2.90 4.59,5.69 4.54,8.07 4.49,10.45 3.24,15.86 1.99,21.26 1.02,25.56 0.04,29.86 -0.19,32.44 -0.43,35.02 -0.67,37.52 -0.92,40.03 -1.26,42.44 -1.60,44.85 -1.95,48.94 -2.30,53.02 -2.44,56.50 -2.57,59.98 -2.52,63.32 -2.46,66.65 -2.36,69.70 -2.27,72.75 -2.07,75.19 -1.86,77.64 -0.67,79.57 0.52,81.51 2.04,83.70 3.56,85.89 5.60,86.67 7.64,87.44 10.51,87.44 13.38,87.44 15.60,87.57 17.81,87.69 20.32,87.93 22.82,88.16 25.11,88.18 27.39,88.20 30.84,88.23 34.28,88.26 37.06,88.28 39.84,88.30 42.29,88.31 44.74,88.31 47.23,88.31 49.72,88.32 51.85,88.31 53.99,88.30 56.75,87.99 59.51,87.68 61.68,87.13 63.86,86.58 66.53,85.54 69.21,84.49 71.48,83.36 73.76,82.22 76.08,80.50 78.40,78.78 80.04,76.70 81.68,74.61 83.04,72.33 84.39,70.04 86.24,66.79 88.09,63.55 89.45,61.20 90.81,58.85 92.60,55.87 94.40,52.90 96.39,49.61 98.39,46.32 100.36,42.76 102.32,39.21 104.24,35.42 106.16,31.64 108.00,27.78 109.84,23.92 111.19,20.45 112.53,16.97 113.43,14.06 114.33,11.14 115.12,8.30 115.91,5.46 116.46,3.00 117.01,0.53 117.57,-3.36 118.13,-7.26 118.49,-10.39 118.86,-13.53 118.87,-15.82 118.89,-18.12 118.75,-21.01 118.61,-23.89 117.48,-25.76 116.36,-27.62 113.94,-27.25 111.52,-26.89 109.39,-26.72 107.25,-26.55 104.83,-25.51 102.42,-24.48 100.16,-23.28 97.91,-22.08 95.50,-20.47 93.09,-18.86 90.42,-17.15 87.75,-15.45 84.80,-13.53 81.86,-11.61 79.02,-9.70 76.17,-7.78 74.38,-6.55 72.59,-5.32 70.86,-3.72 69.13,-2.11 66.76,1.43 64.39,4.97 63.61,5.78 62.83,6.58 61.83,7.10 60.83,7.61 59.72,7.78 58.61,7.95 57.51,7.76 56.40,7.56 55.42,7.03 54.43,6.49 53.67,5.67 52.91,4.84 52.45,3.82 51.99,2.79 51.88,1.68 51.77,0.56 52.02,-0.52 52.28,-1.62 52.87,-2.57 53.46,-3.52 54.32,-4.24 55.18,-4.96 56.23,-5.36 57.28,-5.77 58.40,-5.81 59.52,-5.86 60.60,-5.55 61.67,-5.24 62.60,-4.60 63.52,-3.96 64.19,-3.06 64.85,-2.15 65.20,-1.09 65.55,-0.02 65.53,1.09 65.52,2.21 65.15,3.27 64.78,4.33 64.09,5.22 63.40,6.10 62.47,6.72 61.53,7.34 60.45,7.63 59.36,7.92 58.24,7.84 57.12,7.77 56.08,7.34 55.05,6.92 54.20,6.18 53.35,5.44 52.79,4.48 52.22,3.51 51.99,2.41 51.76,1.31 51.90,0.20 52.03,-0.91 52.51,-1.92 52.99,-2.93 52.99,-2.93 52.99,-2.93 55.33,-6.27 57.66,-9.61 59.09,-11.26 60.53,-12.92 62.56,-14.59 64.59,-16.26 67.79,-18.68 70.98,-21.10 74.03,-23.28 77.08,-25.46 79.73,-27.28 82.38,-29.09 84.79,-30.76 87.20,-32.44 89.35,-33.81 91.50,-35.19 93.78,-36.27 96.06,-37.35 98.51,-38.30 100.96,-39.25 103.53,-39.92 106.10,-40.60 108.25,-40.61 110.40,-40.62 112.80,-40.53 115.20,-40.43 117.37,-40.18 119.55,-39.93 121.81,-38.98 124.07,-38.02 125.88,-36.19 127.68,-34.35 128.64,-32.41 129.61,-30.48 130.06,-27.98 130.52,-25.48 130.33,-22.68 130.13,-19.88 129.87,-17.40 129.61,-14.92 129.01,-11.78 128.41,-8.64 127.47,-5.09 126.53,-1.55 125.93,0.61 125.33,2.77 124.52,5.32 123.72,7.87 122.74,10.77 121.76,13.66 120.67,16.62 119.57,19.59 118.27,23.23 116.97,26.88 115.53,30.94 114.09,35.00 112.68,39.09 111.26,43.18 109.83,47.26 108.40,51.33 106.96,54.91 105.52,58.49 104.20,61.73 102.87,64.97 101.74,67.51 100.61,70.05 98.83,73.63 97.06,77.20 95.75,79.48 94.45,81.77 92.73,84.07 91.01,86.37 88.52,88.83 86.02,91.29 83.82,92.80 81.61,94.31 79.28,95.46 76.94,96.61 74.76,97.60 72.59,98.58 70.24,99.40 67.89,100.22 65.17,100.92 62.44,101.62 59.34,102.08 56.23,102.55 54.05,102.54 51.87,102.53 49.61,102.53 47.35,102.52 44.77,102.53 42.20,102.54 39.73,102.54 37.26,102.55 34.05,102.60 30.84,102.65 28.22,102.62 25.60,102.59 22.69,102.42 19.79,102.26 17.39,101.97 14.99,101.69 12.78,101.64 10.58,101.59 7.87,101.47 5.16,101.36 2.78,100.77 0.40,100.18 -1.65,98.90 -3.72,97.62 -5.44,95.81 -7.15,94.00 -8.47,91.95 -9.80,89.90 -10.86,87.66 -11.93,85.42 -12.81,83.18 -13.68,80.94 -13.84,77.90 -14.01,74.85 -13.88,72.51 -13.75,70.16 -13.59,66.61 -13.43,63.07 -13.10,59.31 -12.76,55.55 -12.10,51.58 -11.45,47.61 -11.01,45.39 -10.58,43.16 -10.05,40.97 -9.53,38.78 -9.06,36.32 -8.58,33.85 -8.07,31.20 -7.56,28.54 -7.02,24.14 -6.49,19.73 -5.88,14.83 -5.28,9.93 -5.08,7.68 -4.88,5.43 -4.77,2.65 -4.66,-0.12 -4.58,-0.68 -4.49,-1.23 -4.28,-1.75 -4.07,-2.27 -3.74,-2.73 -3.40,-3.18 -2.97,-3.54 -2.54,-3.90 -2.04,-4.15 -1.53,-4.40 -0.98,-4.52 -0.43,-4.64 0.12,-4.63 0.68,-4.61 1.22,-4.46 1.77,-4.31 2.26,-4.04 2.75,-3.76 3.16,-3.38 3.57,-3.00 3.88,-2.52 4.18,-2.05 4.37,-1.52 4.55,-0.99 4.61,-0.43 4.66,0.12 4.66,0.12 L 4.66,0.12 Z"></path></g><g stroke-linecap="round"><g transform="translate(465.265625 222.98828125) rotate(0 79.685546875 1.53125)"><path d="M0.35 1.02 C27.16 1.39, 133.47 2.48, 160.04 2.98" stroke="#1e1e1e" stroke-width="2.5" fill="none" stroke-dasharray="8 10"></path></g><g transform="translate(465.265625 222.98828125) rotate(0 79.685546875 1.53125)"><path d="M136.43 11.2 C143.63 10.31, 147.33 7.92, 160.04 2.98" stroke="#1e1e1e" stroke-width="2.5" fill="none"></path></g><g transform="translate(465.265625 222.98828125) rotate(0 79.685546875 1.53125)"><path d="M136.67 -5.9 C143.92 -2.77, 147.56 -1.14, 160.04 2.98" stroke="#1e1e1e" stroke-width="2.5" fill="none"></path></g></g><mask></mask><g transform="translate(800.48828125 128.37109375) rotate(0 -62.19921875 66.505859375)" stroke="none"><path fill="#f08c00" d="M -1.68,4.96 Q -1.68,4.96 -4.40,4.01 -7.11,3.05 -9.27,2.30 -11.43,1.56 -15.22,-0.19 -19.02,-1.94 -22.39,-3.56 -25.77,-5.17 -27.70,-6.15 -29.64,-7.12 -32.97,-8.74 -36.31,-10.35 -38.49,-11.43 -40.66,-12.52 -43.64,-13.77 -46.62,-15.03 -49.57,-16.11 -52.51,-17.19 -56.24,-18.40 -59.97,-19.61 -62.65,-20.21 -65.33,-20.81 -67.45,-21.09 -69.58,-21.36 -71.84,-21.37 -74.11,-21.37 -76.57,-21.30 -79.04,-21.24 -81.88,-21.16 -84.73,-21.07 -86.85,-20.59 -88.97,-20.10 -90.70,-18.41 -92.42,-16.71 -93.57,-14.64 -94.71,-12.58 -95.99,-10.27 -97.27,-7.97 -98.69,-5.86 -100.10,-3.75 -101.36,-1.99 -102.62,-0.23 -103.91,1.80 -105.19,3.84 -106.31,5.83 -107.43,7.82 -108.91,10.45 -110.39,13.09 -111.90,15.86 -113.41,18.64 -114.70,20.80 -115.98,22.96 -117.52,25.44 -119.06,27.93 -120.26,29.95 -121.47,31.97 -122.54,33.98 -123.62,35.99 -124.75,38.20 -125.89,40.41 -127.03,42.66 -128.17,44.90 -129.29,47.31 -130.41,49.71 -131.92,52.89 -133.42,56.08 -134.69,58.98 -135.97,61.88 -137.20,64.69 -138.44,67.50 -139.56,70.16 -140.68,72.82 -141.35,75.02 -142.02,77.23 -142.59,79.44 -143.17,81.66 -143.72,83.92 -144.28,86.18 -144.71,89.25 -145.14,92.32 -145.42,94.89 -145.69,97.45 -145.89,99.65 -146.09,101.86 -146.20,105.03 -146.31,108.20 -146.31,111.12 -146.31,114.03 -146.29,116.94 -146.28,119.86 -146.20,122.57 -146.12,125.29 -145.56,127.64 -144.99,129.99 -144.23,132.41 -143.46,134.82 -142.19,136.86 -140.92,138.91 -139.19,140.49 -137.45,142.08 -135.20,143.45 -132.95,144.82 -130.49,146.23 -128.03,147.64 -125.67,148.47 -123.31,149.29 -121.17,149.87 -119.04,150.45 -116.50,150.91 -113.96,151.36 -110.17,152.03 -106.39,152.70 -104.13,153.01 -101.87,153.33 -99.28,153.66 -96.70,153.99 -93.89,154.24 -91.09,154.48 -87.84,154.72 -84.60,154.96 -79.57,155.38 -74.54,155.81 -70.81,156.00 -67.09,156.19 -63.51,156.30 -59.93,156.41 -56.17,156.53 -52.42,156.66 -48.51,156.79 -44.61,156.92 -40.78,157.00 -36.95,157.09 -33.17,157.14 -29.39,157.19 -25.64,157.22 -21.89,157.25 -18.65,157.18 -15.41,157.11 -12.63,157.00 -9.86,156.88 -7.02,156.80 -4.19,156.71 -1.58,156.53 1.03,156.35 3.25,155.94 5.48,155.53 9.21,154.55 12.93,153.56 15.21,152.66 17.49,151.75 19.66,150.40 21.83,149.04 22.17,146.91 22.50,144.78 21.87,142.19 21.24,139.59 20.29,137.62 19.35,135.65 17.64,133.36 15.93,131.08 14.59,129.42 13.25,127.76 11.76,125.54 10.28,123.32 8.92,120.78 7.57,118.23 6.14,115.61 4.72,112.99 3.68,111.00 2.64,109.02 1.72,107.01 0.79,105.01 -0.60,102.38 -2.00,99.75 -3.31,97.70 -4.62,95.66 -6.46,94.28 -8.29,92.91 -10.86,92.88 -13.43,92.86 -16.00,92.87 -18.56,92.88 -21.01,92.90 -23.47,92.92 -25.72,92.93 -27.97,92.94 -30.41,92.95 -32.85,92.95 -35.07,94.23 -37.28,95.52 -39.74,96.56 -42.20,97.60 -44.33,98.14 -46.47,98.68 -48.65,99.30 -50.82,99.92 -53.29,100.37 -55.76,100.82 -58.65,101.03 -61.55,101.24 -63.84,101.25 -66.13,101.26 -67.37,101.06 -68.61,100.86 -69.72,100.27 -70.83,99.68 -71.69,98.77 -72.55,97.86 -73.08,96.72 -73.61,95.58 -73.75,94.33 -73.88,93.08 -73.61,91.85 -73.34,90.63 -72.69,89.55 -72.05,88.47 -71.09,87.66 -70.13,86.85 -68.97,86.38 -67.80,85.91 -66.54,85.85 -65.29,85.78 -64.08,86.11 -62.87,86.45 -61.83,87.16 -60.79,87.86 -60.03,88.86 -59.27,89.86 -58.87,91.05 -58.46,92.24 -58.46,93.50 -58.46,94.75 -58.87,95.95 -59.27,97.14 -60.03,98.14 -60.79,99.14 -61.83,99.84 -62.87,100.55 -64.08,100.88 -65.29,101.22 -66.54,101.15 -67.80,101.08 -68.96,100.62 -70.13,100.15 -71.09,99.34 -72.05,98.53 -72.69,97.45 -73.34,96.37 -73.61,95.15 -73.88,93.92 -73.75,92.67 -73.61,91.42 -73.08,90.28 -72.56,89.14 -71.69,88.23 -70.83,87.32 -69.72,86.73 -68.61,86.14 -67.37,85.94 -66.13,85.73 -66.13,85.73 -66.13,85.73 -63.43,85.65 -60.73,85.56 -58.01,85.34 -55.29,85.12 -53.03,84.52 -50.77,83.92 -48.58,83.38 -46.38,82.85 -44.42,81.89 -42.46,80.93 -40.54,79.97 -38.61,79.02 -35.74,78.39 -32.87,77.76 -30.42,77.76 -27.97,77.77 -25.72,77.78 -23.47,77.78 -21.01,77.81 -18.55,77.83 -15.95,77.86 -13.35,77.89 -10.98,77.95 -8.61,78.01 -6.26,78.42 -3.92,78.83 -1.45,80.05 1.01,81.28 3.32,83.27 5.63,85.26 7.29,87.45 8.96,89.64 10.29,92.11 11.62,94.59 12.70,96.61 13.77,98.64 15.07,101.41 16.36,104.17 17.87,106.95 19.39,109.72 20.75,112.28 22.10,114.84 23.21,116.76 24.33,118.69 25.88,120.72 27.43,122.75 28.76,124.57 30.09,126.38 31.19,128.42 32.28,130.45 33.11,132.58 33.94,134.72 34.73,137.62 35.52,140.52 35.49,143.37 35.46,146.22 35.05,148.60 34.65,150.99 33.45,153.17 32.26,155.35 29.96,157.26 27.67,159.16 25.42,160.21 23.18,161.27 20.68,161.97 18.19,162.67 14.82,163.29 11.44,163.91 9.09,164.28 6.74,164.66 4.04,164.92 1.34,165.19 -1.42,165.20 -4.19,165.21 -7.02,165.12 -9.86,165.04 -12.63,164.92 -15.41,164.81 -18.65,164.74 -21.89,164.67 -25.64,164.70 -29.39,164.73 -33.17,164.78 -36.95,164.83 -40.78,164.91 -44.61,165.00 -48.52,165.13 -52.42,165.26 -56.18,165.38 -59.93,165.50 -63.52,165.61 -67.10,165.71 -70.84,165.89 -74.58,166.06 -79.66,166.45 -84.74,166.84 -88.11,167.00 -91.48,167.16 -94.63,167.22 -97.77,167.28 -100.49,167.19 -103.20,167.09 -105.64,166.95 -108.07,166.81 -112.25,166.34 -116.43,165.88 -119.27,165.45 -122.11,165.03 -124.20,164.50 -126.29,163.98 -128.62,163.20 -130.96,162.43 -133.19,161.47 -135.41,160.51 -137.54,159.31 -139.66,158.11 -141.52,156.89 -143.38,155.68 -145.63,154.12 -147.89,152.56 -149.77,150.72 -151.65,148.88 -153.06,146.92 -154.46,144.97 -155.70,142.46 -156.94,139.95 -157.69,137.69 -158.45,135.43 -158.96,133.36 -159.48,131.29 -159.95,128.81 -160.43,126.32 -160.49,123.08 -160.56,119.83 -160.53,116.90 -160.50,113.97 -160.45,110.93 -160.40,107.89 -160.32,105.40 -160.23,102.91 -160.03,100.70 -159.82,98.48 -159.56,95.90 -159.31,93.31 -158.99,90.63 -158.68,87.95 -158.22,85.36 -157.76,82.77 -157.16,80.47 -156.56,78.18 -155.89,75.75 -155.23,73.33 -154.34,70.57 -153.44,67.80 -152.25,64.90 -151.05,61.99 -149.85,59.21 -148.66,56.43 -147.40,53.41 -146.14,50.39 -144.76,47.12 -143.38,43.85 -142.17,41.17 -140.96,38.48 -139.83,36.21 -138.71,33.94 -137.55,31.64 -136.40,29.34 -135.18,27.02 -133.95,24.69 -132.69,22.52 -131.43,20.36 -130.09,18.09 -128.75,15.82 -127.47,13.56 -126.19,11.30 -124.73,8.57 -123.27,5.83 -121.91,3.39 -120.55,0.94 -119.32,-1.23 -118.08,-3.40 -116.82,-5.36 -115.56,-7.32 -114.23,-9.19 -112.90,-11.05 -111.38,-13.16 -109.87,-15.26 -108.72,-17.25 -107.57,-19.24 -106.14,-21.73 -104.71,-24.23 -102.97,-26.32 -101.23,-28.41 -99.60,-29.77 -97.96,-31.13 -95.95,-32.20 -93.95,-33.26 -90.93,-34.01 -87.92,-34.76 -84.88,-34.75 -81.84,-34.74 -79.54,-34.67 -77.25,-34.60 -74.56,-34.49 -71.88,-34.37 -69.72,-34.15 -67.56,-33.93 -65.14,-33.44 -62.72,-32.96 -59.60,-32.10 -56.48,-31.25 -52.40,-29.97 -48.33,-28.70 -45.07,-27.36 -41.82,-26.02 -38.71,-24.53 -35.60,-23.03 -31.67,-21.10 -27.75,-19.16 -24.25,-17.30 -20.76,-15.43 -17.20,-13.53 -13.64,-11.63 -10.69,-9.99 -7.73,-8.35 -5.75,-7.55 -3.77,-6.75 -1.04,-5.86 1.68,-4.96 2.25,-4.68 2.82,-4.41 3.31,-4.01 3.79,-3.61 4.17,-3.10 4.55,-2.59 4.79,-2.01 5.04,-1.43 5.13,-0.80 5.23,-0.18 5.18,0.44 5.12,1.07 4.92,1.67 4.72,2.27 4.38,2.80 4.04,3.33 3.58,3.77 3.12,4.20 2.57,4.51 2.02,4.83 1.42,5.00 0.81,5.17 0.18,5.19 -0.45,5.22 -1.06,5.09 -1.68,4.96 -1.68,4.96 L -1.68,4.96 Z"></path></g><g transform="translate(824.25390625 178.6875) rotate(0 29.466796875 37.068359375)" stroke="none"><path fill="#f08c00" d="M 5.33,0 Q 5.33,0 5.41,1.71 5.48,3.43 5.61,5.60 5.75,7.77 6.44,10.60 7.12,13.43 8.04,16.38 8.96,19.33 10.02,22.07 11.08,24.80 12.22,27.36 13.35,29.92 14.54,32.41 15.72,34.91 16.73,37.03 17.74,39.14 18.70,41.18 19.67,43.21 20.92,45.68 22.17,48.15 23.14,50.24 24.11,52.33 25.13,54.84 26.14,57.34 26.91,59.39 27.69,61.44 28.61,63.73 29.53,66.02 30.46,68.14 31.39,70.27 32.24,72.23 33.09,74.20 33.76,76.22 34.42,78.25 35.17,80.57 35.91,82.89 36.30,85.25 36.69,87.62 36.67,87.73 36.65,87.84 36.57,88.74 36.50,89.65 36.21,90.51 35.92,91.37 35.44,92.14 34.95,92.91 34.30,93.54 33.64,94.17 32.85,94.62 32.06,95.08 31.19,95.33 30.32,95.58 29.41,95.62 28.50,95.65 27.61,95.47 26.72,95.29 25.90,94.90 25.08,94.51 24.37,93.94 23.67,93.36 23.12,92.63 22.58,91.91 22.22,91.07 21.87,90.23 21.72,89.34 21.58,88.44 23.77,91.51 25.96,94.59 24.17,93.23 22.38,91.87 21.30,89.95 20.23,88.03 19.38,85.78 18.53,83.54 17.46,81.00 16.39,78.46 15.60,76.47 14.82,74.49 13.97,72.23 13.11,69.97 12.20,67.10 11.29,64.22 10.56,62.11 9.83,59.99 8.82,57.45 7.82,54.91 6.60,51.79 5.39,48.67 3.65,44.21 1.91,39.74 0.47,36.25 -0.97,32.75 -2.39,29.57 -3.80,26.39 -5.02,23.26 -6.24,20.12 -7.32,17.45 -8.40,14.78 -9.24,12.45 -10.09,10.12 -10.86,8.09 -11.62,6.06 -12.46,3.75 -13.29,1.44 -14.41,-0.88 -15.53,-3.22 -16.77,-5.26 -18.01,-7.30 -18.04,-12.67 -18.07,-18.05 -14.05,-19.36 -10.02,-20.66 -7.79,-19.03 -5.55,-17.40 -3.89,-15.48 -2.22,-13.57 -0.51,-11.68 1.20,-9.80 3.52,-7.90 5.83,-6.00 8.07,-4.26 10.30,-2.53 12.52,-0.72 14.74,1.08 17.29,3.07 19.83,5.06 22.80,7.57 25.77,10.07 28.68,12.46 31.59,14.84 34.38,16.94 37.17,19.03 39.95,20.99 42.73,22.94 45.29,24.60 47.84,26.26 49.94,27.61 52.04,28.95 54.97,30.64 57.90,32.34 60.17,33.66 62.43,34.98 64.34,36.16 66.24,37.34 68.19,38.44 70.14,39.55 71.94,40.74 73.74,41.93 76.69,45.84 79.65,49.75 79.76,50.93 79.88,52.10 79.62,53.25 79.36,54.40 78.75,55.41 78.13,56.41 77.23,57.17 76.32,57.93 75.23,58.36 74.13,58.78 72.95,58.84 71.77,58.90 70.64,58.57 69.50,58.25 68.53,57.58 67.56,56.91 66.85,55.97 66.14,55.03 65.78,53.91 65.41,52.79 65.41,51.61 65.42,50.43 65.81,49.31 66.19,48.20 66.91,47.26 67.63,46.33 68.61,45.67 69.59,45.02 70.73,44.71 71.87,44.40 73.05,44.48 74.22,44.55 75.32,44.99 76.41,45.44 77.30,46.20 78.20,46.97 78.80,47.99 79.40,49.00 79.64,50.16 79.89,51.31 79.75,52.48 79.62,53.65 79.12,54.72 78.61,55.79 77.80,56.64 76.98,57.49 75.93,58.03 74.89,58.58 73.72,58.76 72.56,58.94 71.39,58.75 70.23,58.55 69.19,57.99 68.16,57.43 67.35,56.57 66.55,55.70 66.06,54.63 65.57,53.56 65.57,53.56 65.57,53.56 64.40,52.86 63.22,52.15 61.45,50.98 59.68,49.80 57.42,48.28 55.16,46.76 53.13,45.46 51.11,44.16 48.02,42.27 44.92,40.39 42.75,38.94 40.58,37.49 37.89,35.73 35.20,33.96 32.18,31.91 29.17,29.86 26.18,27.71 23.19,25.56 20.14,23.25 17.10,20.93 14.14,18.66 11.19,16.39 8.47,14.41 5.75,12.43 3.63,10.79 1.52,9.14 -0.81,7.44 -3.15,5.73 -5.56,3.76 -7.98,1.79 -9.98,-0.23 -11.97,-2.26 -13.39,-4.62 -14.81,-6.97 -11.92,-8.44 -9.04,-9.90 -8.02,-13.37 -7.00,-16.85 -5.80,-14.86 -4.60,-12.86 -3.58,-10.87 -2.56,-8.88 -1.59,-6.61 -0.62,-4.35 0.05,-2.13 0.74,0.07 1.64,2.80 2.53,5.52 3.26,7.74 3.99,9.97 5.06,12.74 6.13,15.50 7.20,18.31 8.27,21.12 9.70,24.28 11.13,27.43 12.62,30.83 14.11,34.23 15.63,37.03 17.14,39.82 18.61,43.02 20.07,46.22 21.32,49.01 22.57,51.80 23.75,54.71 24.94,57.62 25.79,60.20 26.64,62.77 27.32,64.93 28.00,67.08 28.88,69.22 29.77,71.36 30.76,73.70 31.76,76.05 31.83,78.82 31.91,81.60 34.28,84.72 36.65,87.84 36.57,88.74 36.50,89.65 36.21,90.51 35.92,91.37 35.44,92.14 34.95,92.91 34.30,93.54 33.64,94.17 32.85,94.62 32.06,95.08 31.19,95.33 30.32,95.58 29.41,95.62 28.50,95.65 27.61,95.47 26.72,95.29 25.90,94.90 25.08,94.51 24.37,93.94 23.67,93.36 23.12,92.63 22.58,91.91 22.22,91.07 21.87,90.23 21.72,89.34 21.58,88.44 21.28,86.75 20.99,85.06 20.41,82.98 19.82,80.90 18.81,78.43 17.80,75.97 16.87,73.65 15.94,71.33 15.05,68.93 14.15,66.52 13.16,63.94 12.16,61.36 11.31,59.20 10.47,57.03 9.27,54.32 8.07,51.60 7.20,49.54 6.33,47.48 5.45,45.43 4.57,43.38 3.59,41.13 2.61,38.88 1.48,36.14 0.36,33.40 -0.37,31.39 -1.11,29.38 -1.85,27.13 -2.59,24.88 -3.34,21.75 -4.09,18.63 -4.62,16.52 -5.15,14.40 -5.45,11.09 -5.75,7.77 -5.61,5.60 -5.48,3.43 -5.41,1.71 -5.33,0 -5.26,-0.63 -5.18,-1.27 -4.95,-1.87 -4.72,-2.48 -4.36,-3.01 -3.99,-3.54 -3.51,-3.96 -3.03,-4.39 -2.46,-4.69 -1.89,-4.99 -1.26,-5.14 -0.64,-5.30 0.00,-5.30 0.64,-5.30 1.26,-5.14 1.89,-4.99 2.46,-4.69 3.03,-4.39 3.51,-3.96 3.99,-3.54 4.36,-3.01 4.72,-2.48 4.95,-1.87 5.18,-1.27 5.26,-0.63 5.33,0.00 5.33,0.00 L 5.33,0 Z"></path></g><g transform="translate(834.390625 229.46484375) rotate(0 17.189453125 -25.47265625)" stroke="none"><path fill="#f08c00" d="M -4.91,-1.94 Q -4.91,-1.94 -4.14,-4.01 -3.36,-6.09 -2.06,-9.03 -0.75,-11.96 0.84,-14.68 2.43,-17.39 4.25,-20.04 6.07,-22.69 8.72,-26.26 11.37,-29.83 12.89,-31.85 14.42,-33.88 15.85,-35.84 17.28,-37.80 18.66,-39.74 20.05,-41.68 21.54,-43.66 23.02,-45.65 24.42,-47.44 25.83,-49.23 27.85,-51.93 29.87,-54.64 30.58,-55.29 31.30,-55.95 32.18,-56.34 33.07,-56.74 34.03,-56.83 35.00,-56.92 35.94,-56.70 36.88,-56.47 37.71,-55.96 38.53,-55.45 39.15,-54.70 39.76,-53.95 40.11,-53.05 40.45,-52.14 40.49,-51.17 40.53,-50.21 40.26,-49.28 39.98,-48.35 39.43,-47.55 38.87,-46.76 38.09,-46.18 37.31,-45.61 36.39,-45.31 35.47,-45.01 34.50,-45.03 33.53,-45.04 32.61,-45.37 31.70,-45.69 30.94,-46.29 30.17,-46.88 29.64,-47.69 29.11,-48.51 28.87,-49.44 28.62,-50.38 28.69,-51.35 28.75,-52.31 29.13,-53.21 29.50,-54.10 30.14,-54.83 30.77,-55.56 31.61,-56.05 32.45,-56.54 33.40,-56.73 34.35,-56.93 35.31,-56.81 36.27,-56.69 37.15,-56.27 38.02,-55.85 38.71,-55.17 39.41,-54.49 39.85,-53.63 40.29,-52.77 40.43,-51.81 40.58,-50.85 40.40,-49.90 40.23,-48.94 39.77,-48.09 39.30,-47.24 39.30,-47.24 39.30,-47.25 38.19,-45.91 37.09,-44.57 34.71,-41.66 32.33,-38.76 30.95,-36.87 29.57,-34.98 28.19,-33.00 26.81,-31.01 25.39,-28.98 23.98,-26.94 22.52,-24.85 21.06,-22.76 19.68,-20.82 18.30,-18.88 17.04,-17.17 15.79,-15.45 14.01,-13.16 12.24,-10.87 10.74,-8.77 9.24,-6.67 7.93,-4.41 6.62,-2.14 5.77,-0.10 4.91,1.94 4.61,2.50 4.30,3.06 3.87,3.53 3.44,4.00 2.92,4.35 2.39,4.71 1.79,4.92 1.19,5.14 0.56,5.21 -0.07,5.28 -0.70,5.19 -1.33,5.11 -1.92,4.87 -2.51,4.64 -3.03,4.27 -3.55,3.90 -3.97,3.42 -4.38,2.94 -4.67,2.37 -4.96,1.80 -5.10,1.18 -5.25,0.56 -5.24,-0.07 -5.23,-0.70 -5.07,-1.32 -4.91,-1.94 -4.91,-1.94 L -4.91,-1.94 Z"></path></g><g transform="translate(863.0859375 134.86328125) rotate(0 46.48828125 47.982421875)" stroke="none"><path fill="#f08c00" d="M 4.91,-1.55 Q 4.91,-1.55 5.73,1.01 6.55,3.59 8.53,7.79 10.52,11.99 11.63,14.28 12.74,16.58 13.80,18.76 14.85,20.93 16.65,23.90 18.44,26.87 20.49,30.51 22.55,34.16 24.67,38.00 26.78,41.84 28.81,45.07 30.83,48.30 32.96,51.93 35.08,55.57 36.20,57.64 37.32,59.72 38.65,62.22 39.97,64.73 41.35,67.16 42.72,69.59 44.08,71.88 45.43,74.17 46.62,76.31 47.81,78.45 49.05,80.61 50.29,82.77 51.56,85.08 52.84,87.39 53.92,89.58 55.01,91.78 55.74,93.93 56.46,96.08 54.75,100.17 53.03,104.26 49.53,104.65 46.04,105.04 43.02,102.45 40.00,99.86 38.68,97.93 37.36,96.01 35.65,93.60 33.94,91.19 32.39,88.80 30.85,86.41 29.48,83.92 28.11,81.44 26.72,79.01 25.34,76.57 23.47,73.32 21.60,70.07 20.48,68.17 19.37,66.27 18.15,64.11 16.93,61.94 15.67,59.66 14.41,57.38 13.24,55.32 12.07,53.26 10.95,51.32 9.83,49.38 8.72,47.38 7.61,45.38 5.37,41.90 3.13,38.42 2.02,36.55 0.92,34.68 -0.97,31.32 -2.87,27.97 -4.67,25.30 -6.47,22.62 -8.47,19.64 -10.48,16.66 -12.05,14.68 -13.61,12.70 -15.94,11.46 -18.27,10.22 -20.34,9.49 -22.41,8.76 -24.40,7.55 -26.39,6.34 -28.29,4.23 -30.19,2.12 -29.39,-2.36 -28.60,-6.85 -26.86,-8.16 -25.12,-9.46 -22.12,-9.63 -19.12,-9.79 -15.79,-9.80 -12.47,-9.81 -9.86,-9.79 -7.25,-9.78 -4.43,-9.62 -1.62,-9.45 2.23,-9.39 6.08,-9.33 11.39,-9.07 16.71,-8.81 19.05,-8.77 21.39,-8.74 25.29,-8.62 29.19,-8.50 32.92,-7.53 36.66,-6.56 39.79,-4.85 42.92,-3.14 45.26,-1.33 47.59,0.48 49.06,2.15 50.52,3.83 51.67,5.73 52.82,7.63 53.63,10.13 54.45,12.64 54.64,15.15 54.84,17.66 54.38,20.94 53.92,24.21 52.98,26.29 52.04,28.36 50.54,30.31 49.04,32.26 47.21,34.42 45.38,36.58 43.31,38.61 41.24,40.65 39.67,42.20 38.10,43.75 37.26,41.09 36.41,38.44 34.23,36.69 32.04,34.95 34.82,35.19 37.60,35.44 40.88,35.90 44.17,36.37 47.84,37.18 51.51,37.99 53.56,38.63 55.61,39.27 57.90,40.16 60.18,41.05 62.40,41.92 64.61,42.79 66.65,43.62 68.69,44.44 70.84,45.36 72.98,46.28 75.58,47.52 78.18,48.75 81.05,50.12 83.91,51.49 86.53,52.62 89.15,53.75 91.34,54.71 93.53,55.67 97.79,57.65 102.05,59.64 105.07,60.88 108.09,62.12 110.94,62.97 113.79,63.83 116.43,64.75 119.07,65.66 119.99,66.11 120.91,66.57 121.64,67.29 122.37,68.01 122.83,68.92 123.29,69.84 123.43,70.85 123.58,71.87 123.39,72.88 123.20,73.89 122.70,74.78 122.20,75.68 121.44,76.37 120.68,77.05 119.74,77.46 118.80,77.88 117.78,77.96 116.76,78.05 115.76,77.81 114.77,77.57 113.90,77.02 113.03,76.47 112.39,75.68 111.74,74.88 111.38,73.92 111.02,72.96 110.99,71.94 110.96,70.91 111.25,69.93 111.55,68.95 112.14,68.11 112.74,67.28 113.57,66.67 114.39,66.07 115.37,65.76 116.35,65.46 117.38,65.48 118.40,65.50 119.37,65.85 120.33,66.20 121.13,66.84 121.94,67.48 122.49,68.34 123.05,69.20 123.30,70.19 123.56,71.19 123.48,72.21 123.40,73.23 123.00,74.17 122.60,75.12 121.92,75.89 121.24,76.65 120.35,77.16 119.46,77.67 118.45,77.87 117.45,78.07 116.43,77.93 115.41,77.80 115.41,77.80 115.41,77.80 111.79,76.33 108.17,74.85 105.80,73.89 103.44,72.93 100.34,71.44 97.24,69.96 93.06,68.09 88.87,66.21 86.90,65.34 84.93,64.46 82.16,63.47 79.39,62.47 76.33,61.40 73.27,60.33 70.70,59.38 68.13,58.42 64.14,56.97 60.15,55.52 57.85,54.80 55.55,54.09 52.01,53.05 48.48,52.01 45.14,51.45 41.79,50.89 39.62,50.60 37.45,50.31 34.98,49.95 32.51,49.59 30.26,49.23 28.02,48.87 26.54,47.32 25.06,45.77 24.55,42.15 24.04,38.53 25.88,36.15 27.72,33.78 29.63,31.96 31.53,30.15 33.65,27.96 35.77,25.77 37.47,23.85 39.18,21.93 40.06,19.92 40.94,17.91 40.71,15.36 40.48,12.81 39.12,10.88 37.75,8.95 35.16,7.15 32.57,5.35 30.36,4.59 28.14,3.83 24.77,3.68 21.39,3.52 19.05,3.56 16.71,3.59 11.39,3.85 6.08,4.11 2.23,4.17 -1.62,4.24 -5.74,4.41 -9.87,4.58 -12.38,4.60 -14.89,4.61 -17.24,3.38 -19.58,2.14 -18.02,-0.68 -16.45,-3.52 -14.45,-2.75 -12.45,-1.99 -10.43,-0.87 -8.41,0.24 -6.17,2.18 -3.93,4.12 -2.66,5.85 -1.40,7.59 0.41,10.34 2.23,13.10 4.01,15.83 5.80,18.57 7.77,21.93 9.75,25.29 11.51,28.47 13.28,31.64 14.53,33.50 15.78,35.35 17.04,37.32 18.30,39.29 19.40,41.17 20.50,43.05 21.66,44.95 22.83,46.86 24.08,48.86 25.32,50.86 26.71,53.01 28.11,55.16 29.42,57.17 30.74,59.18 31.97,61.05 33.21,62.92 35.22,66.12 37.22,69.31 38.86,72.11 40.50,74.91 42.19,77.88 43.88,80.84 45.42,83.04 46.96,85.24 48.87,88.38 50.78,91.52 48.14,92.03 45.49,92.55 43.87,95.29 42.26,98.03 41.44,96.01 40.62,93.99 39.42,91.50 38.21,89.00 37.10,86.70 35.98,84.39 35.03,82.33 34.09,80.27 32.84,77.71 31.59,75.16 30.28,72.51 28.96,69.86 27.97,67.60 26.99,65.33 25.93,63.40 24.87,61.46 22.80,57.84 20.73,54.22 18.83,50.92 16.93,47.62 15.53,45.28 14.13,42.95 13.13,40.95 12.14,38.96 10.58,35.85 9.02,32.75 7.12,29.09 5.23,25.44 4.25,23.27 3.27,21.10 2.17,18.77 1.07,16.43 -0.19,13.80 -1.45,11.18 -2.36,8.95 -3.28,6.72 -4.09,4.13 -4.91,1.55 -5.02,0.94 -5.14,0.33 -5.10,-0.28 -5.07,-0.90 -4.89,-1.49 -4.70,-2.09 -4.39,-2.62 -4.07,-3.15 -3.63,-3.59 -3.19,-4.04 -2.66,-4.36 -2.13,-4.68 -1.54,-4.87 -0.95,-5.06 -0.33,-5.10 0.28,-5.14 0.89,-5.03 1.50,-4.92 2.07,-4.67 2.64,-4.42 3.13,-4.04 3.62,-3.66 4.01,-3.17 4.39,-2.68 4.65,-2.12 4.91,-1.55 4.91,-1.55 L 4.91,-1.55 Z"></path></g><g transform="translate(956.984375 131.3828125) rotate(0 6 1.79296875)" stroke="none"><path fill="#f08c00" d="M 4.84,0 Q 4.84,0 4.83,2.97 4.83,5.94 5.26,9.29 5.68,12.64 6.46,16.09 7.24,19.54 8.03,21.63 8.83,23.73 9.68,25.72 10.53,27.70 12.35,31.85 14.17,36.00 15.21,38.19 16.24,40.38 17.87,44.06 19.50,47.74 20.82,50.43 22.13,53.13 23.68,55.93 25.22,58.73 25.86,59.94 26.49,61.15 26.69,61.86 26.88,62.58 26.90,63.33 26.91,64.07 26.75,64.80 26.59,65.52 26.26,66.19 25.93,66.86 25.45,67.43 24.97,67.99 24.36,68.43 23.76,68.87 23.07,69.15 22.38,69.43 21.64,69.53 20.91,69.64 20.16,69.57 19.42,69.49 18.72,69.24 18.02,69.00 17.40,68.59 16.78,68.18 16.27,67.63 15.76,67.09 15.40,66.43 15.04,65.78 13.84,63.53 12.63,61.28 11.47,59.29 10.30,57.31 8.84,54.08 7.37,50.85 5.95,48.01 4.52,45.16 2.98,41.98 1.43,38.80 -0.26,35.03 -1.96,31.25 -4.04,26.89 -6.12,22.53 -10.26,14.63 -14.40,6.72 -17.42,1.08 -20.44,-4.56 -22.75,-8.74 -25.06,-12.91 -28.79,-19.74 -32.52,-26.56 -34.58,-30.59 -36.65,-34.62 -38.44,-37.79 -40.23,-40.96 -41.76,-43.40 -43.29,-45.83 -44.42,-47.65 -45.55,-49.46 -47.08,-51.91 -48.60,-54.35 -49.36,-57.97 -50.12,-61.59 -47.46,-63.36 -44.80,-65.14 -41.22,-63.61 -37.63,-62.09 -35.89,-60.69 -34.14,-59.30 -32.23,-57.71 -30.31,-56.13 -27.55,-53.85 -24.79,-51.56 -23.10,-50.16 -21.41,-48.76 -19.77,-47.36 -18.13,-45.97 -15.11,-42.84 -12.09,-39.72 -8.30,-35.76 -4.50,-31.80 -1.97,-29.39 0.55,-26.97 2.88,-24.78 5.20,-22.58 7.39,-20.48 9.59,-18.38 11.71,-16.33 13.83,-14.29 15.90,-12.28 17.97,-10.27 19.91,-8.31 21.85,-6.34 23.50,-4.66 25.16,-2.97 27.70,-0.25 30.25,2.46 32.20,4.90 34.16,7.34 35.95,9.50 37.74,11.66 39.27,13.70 40.80,15.74 42.20,17.59 43.59,19.44 45.34,21.38 47.08,23.33 49.19,25.25 51.30,27.18 53.31,28.94 55.32,30.69 57.06,32.24 58.80,33.79 60.65,33.77 62.51,33.76 63.08,34.39 63.64,35.02 64.04,35.76 64.44,36.51 64.65,37.33 64.86,38.15 64.87,39.00 64.88,39.84 64.68,40.67 64.48,41.49 64.10,42.24 63.71,42.99 63.15,43.63 62.60,44.27 61.91,44.76 61.21,45.25 60.42,45.55 59.63,45.86 58.80,45.97 57.96,46.08 57.11,45.98 56.27,45.89 55.48,45.59 54.69,45.30 53.98,44.82 53.28,44.35 52.21,40.74 51.14,37.13 51.63,36.10 52.11,35.08 52.90,34.26 53.68,33.44 54.69,32.91 55.70,32.38 56.82,32.21 57.94,32.03 59.06,32.22 60.18,32.41 61.18,32.95 62.18,33.49 62.96,34.32 63.74,35.15 64.21,36.18 64.68,37.22 64.79,38.35 64.91,39.48 64.66,40.59 64.41,41.69 63.81,42.66 63.22,43.63 62.35,44.36 61.48,45.09 60.42,45.51 59.36,45.92 58.23,45.98 57.09,46.03 56.00,45.72 54.91,45.41 53.97,44.76 53.03,44.12 52.35,43.21 51.67,42.30 51.32,41.22 50.96,40.14 50.97,39.01 50.97,37.87 51.34,36.80 51.71,35.72 52.41,34.82 53.10,33.92 54.05,33.29 54.99,32.66 56.09,32.36 57.18,32.07 58.32,32.14 59.45,32.20 60.50,32.63 61.56,33.06 62.42,33.80 63.28,34.54 63.86,35.52 64.44,36.50 64.68,37.61 64.91,38.72 63.71,36.24 62.51,33.76 63.08,34.39 63.64,35.01 64.04,35.76 64.44,36.51 64.65,37.33 64.86,38.15 64.87,38.99 64.88,39.84 64.68,40.66 64.49,41.49 64.10,42.24 63.71,42.99 63.15,43.63 62.60,44.27 61.91,44.76 61.21,45.24 60.42,45.55 59.64,45.86 58.80,45.97 57.96,46.08 57.12,45.98 56.27,45.89 55.48,45.59 54.69,45.30 53.99,44.82 53.28,44.35 51.51,44.22 49.73,44.08 48.08,42.46 46.43,40.83 44.83,39.34 43.23,37.85 41.23,35.76 39.23,33.67 37.66,31.95 36.10,30.22 34.74,28.35 33.38,26.49 32.14,24.55 30.91,22.62 29.66,20.61 28.41,18.59 26.78,16.21 25.14,13.82 23.58,11.39 22.02,8.95 20.00,6.27 17.98,3.58 16.50,1.85 15.03,0.12 13.26,-1.82 11.49,-3.76 9.48,-5.82 7.48,-7.87 5.43,-9.96 3.38,-12.04 1.27,-14.16 -0.83,-16.27 -3.06,-18.44 -5.30,-20.60 -7.93,-22.94 -10.57,-25.28 -14.64,-28.64 -18.72,-32.01 -22.26,-34.52 -25.80,-37.04 -28.95,-39.74 -32.11,-42.45 -35.22,-45.06 -38.34,-47.66 -39.84,-49.22 -41.35,-50.78 -42.51,-53.31 -43.67,-55.83 -42.50,-58.27 -41.33,-60.70 -40.55,-58.30 -39.76,-55.91 -38.47,-52.54 -37.18,-49.16 -35.95,-46.53 -34.72,-43.90 -33.08,-40.64 -31.44,-37.38 -29.30,-33.47 -27.16,-29.56 -23.32,-22.87 -19.48,-16.18 -16.95,-12.07 -14.42,-7.97 -11.11,-2.44 -7.80,3.08 -3.30,10.79 1.20,18.51 3.77,22.63 6.34,26.74 8.56,30.20 10.78,33.65 12.61,36.59 14.45,39.54 16.20,42.31 17.95,45.08 19.86,48.03 21.77,50.99 23.22,53.75 24.67,56.52 25.58,58.83 26.49,61.14 26.69,61.86 26.88,62.58 26.90,63.33 26.91,64.07 26.75,64.80 26.59,65.52 26.26,66.19 25.93,66.86 25.45,67.43 24.97,67.99 24.36,68.43 23.76,68.87 23.07,69.15 22.38,69.43 21.64,69.53 20.91,69.64 20.16,69.57 19.42,69.49 18.72,69.24 18.02,69.00 17.40,68.59 16.78,68.18 16.27,67.63 15.76,67.09 15.40,66.43 15.04,65.78 14.35,63.88 13.66,61.99 12.74,59.88 11.81,57.76 10.66,54.73 9.50,51.70 8.23,48.13 6.97,44.56 5.97,42.25 4.98,39.94 3.33,35.47 1.69,31.00 0.96,28.74 0.23,26.48 -0.41,24.08 -1.05,21.67 -2.13,17.90 -3.21,14.12 -4.02,10.04 -4.83,5.96 -4.83,2.98 -4.84,0 -4.77,-0.57 -4.70,-1.15 -4.49,-1.70 -4.29,-2.25 -3.95,-2.73 -3.62,-3.21 -3.19,-3.60 -2.75,-3.98 -2.23,-4.26 -1.71,-4.53 -1.15,-4.67 -0.58,-4.81 0.00,-4.81 0.58,-4.81 1.15,-4.67 1.71,-4.53 2.23,-4.26 2.75,-3.98 3.19,-3.60 3.62,-3.21 3.96,-2.73 4.29,-2.25 4.49,-1.70 4.70,-1.15 4.77,-0.57 4.84,0.00 4.84,0.00 L 4.84,0 Z"></path></g><g transform="translate(940.66796875 155.6875) rotate(0 8.291015625 -15.896484375)" stroke="none"><path fill="#f08c00" d="M -5.17,-0.70 Q -5.17,-0.70 -4.69,-3.76 -4.21,-6.81 -3.15,-9.74 -2.09,-12.68 -0.16,-16.25 1.76,-19.82 3.13,-21.87 4.49,-23.92 5.92,-25.99 7.36,-28.06 8.67,-30.05 9.98,-32.05 11.01,-33.63 12.03,-35.21 12.72,-35.98 13.41,-36.75 14.31,-37.26 15.20,-37.77 16.22,-37.97 17.23,-38.17 18.25,-38.03 19.28,-37.89 20.20,-37.44 21.13,-36.98 21.86,-36.25 22.59,-35.53 23.06,-34.60 23.52,-33.68 23.66,-32.66 23.80,-31.63 23.61,-30.62 23.42,-29.60 22.91,-28.70 22.41,-27.80 21.64,-27.11 20.87,-26.42 19.93,-26.01 18.98,-25.60 17.95,-25.51 16.92,-25.43 15.92,-25.67 14.91,-25.92 14.04,-26.47 13.17,-27.03 12.52,-27.83 11.87,-28.63 11.51,-29.60 11.16,-30.57 11.13,-31.60 11.09,-32.63 11.40,-33.62 11.70,-34.61 12.30,-35.45 12.90,-36.29 13.73,-36.89 14.57,-37.50 15.56,-37.80 16.54,-38.11 17.57,-38.08 18.61,-38.06 19.58,-37.71 20.55,-37.35 21.35,-36.71 22.16,-36.06 22.72,-35.19 23.28,-34.33 23.53,-33.32 23.78,-32.32 23.70,-31.29 23.62,-30.26 23.21,-29.31 22.81,-28.36 22.81,-28.37 22.81,-28.37 21.02,-25.98 19.24,-23.60 17.47,-21.44 15.70,-19.27 14.02,-17.45 12.34,-15.62 10.71,-13.46 9.09,-11.29 7.48,-8.33 5.88,-5.36 5.52,-2.32 5.17,0.70 5.01,1.31 4.85,1.92 4.55,2.47 4.25,3.02 3.82,3.49 3.40,3.95 2.88,4.30 2.35,4.65 1.76,4.87 1.17,5.08 0.54,5.15 -0.07,5.22 -0.70,5.13 -1.32,5.05 -1.90,4.81 -2.49,4.58 -3.00,4.22 -3.52,3.85 -3.93,3.37 -4.34,2.90 -4.62,2.34 -4.90,1.77 -5.05,1.16 -5.19,0.55 -5.18,-0.07 -5.17,-0.70 -5.17,-0.70 L -5.17,-0.70 Z"></path></g><g transform="translate(958.09375 123.89453125) rotate(0 0.00004999999998744897 0.00004999999998744897)" stroke="none"><path fill="#f08c00" d="M 3.14,-3.14 Q 3.14,-3.14 3.55,-2.55 3.97,-1.97 4.18,-1.28 4.40,-0.59 4.38,0.11 4.36,0.83 4.11,1.51 3.86,2.18 3.41,2.74 2.96,3.30 2.36,3.69 1.75,4.08 1.05,4.25 0.36,4.42 -0.35,4.36 -1.07,4.31 -1.73,4.02 -2.39,3.74 -2.92,3.26 -3.46,2.78 -3.81,2.15 -4.16,1.53 -4.30,0.82 -4.43,0.11 -4.34,-0.59 -4.24,-1.30 -3.92,-1.94 -3.60,-2.59 -3.09,-3.09 -2.59,-3.60 -1.94,-3.92 -1.30,-4.24 -0.59,-4.34 0.12,-4.43 0.82,-4.30 1.53,-4.16 2.15,-3.81 2.78,-3.46 3.26,-2.92 3.74,-2.39 4.02,-1.73 4.31,-1.07 4.36,-0.35 4.42,0.36 4.25,1.05 4.07,1.75 3.69,2.36 3.30,2.96 2.74,3.41 2.18,3.86 1.51,4.11 0.83,4.36 0.11,4.38 -0.60,4.40 -1.28,4.18 -1.97,3.97 -2.55,3.55 -3.14,3.13 -3.14,3.14 -3.14,3.14 -3.47,2.71 -3.80,2.29 -4.02,1.80 -4.24,1.32 -4.33,0.79 -4.43,0.26 -4.40,-0.26 -4.36,-0.80 -4.20,-1.31 -4.04,-1.82 -3.77,-2.28 -3.49,-2.73 -3.11,-3.11 -2.73,-3.49 -2.28,-3.77 -1.82,-4.05 -1.31,-4.20 -0.80,-4.36 -0.26,-4.40 0.26,-4.43 0.79,-4.33 1.32,-4.24 1.80,-4.02 2.29,-3.80 2.71,-3.47 3.14,-3.14 3.14,-3.14 L 3.14,-3.14 Z"></path></g><g transform="translate(1034.265625 35.26953125) rotate(0 14.943359375 52.66015625)" stroke="none"><path fill="#f08c00" d="M 3.36,3.94 Q 3.36,3.94 2.30,4.96 1.23,5.98 -0.23,7.79 -1.69,9.59 -2.92,11.44 -4.14,13.28 -5.34,15.23 -6.53,17.19 -7.68,19.45 -8.83,21.70 -9.96,23.81 -11.09,25.92 -12.33,28.21 -13.56,30.50 -14.65,32.83 -15.73,35.16 -16.24,37.27 -16.74,39.37 -17.16,41.52 -17.57,43.68 -17.96,46.40 -18.34,49.12 -18.70,51.85 -19.06,54.59 -19.31,57.14 -19.57,59.68 -19.61,62.04 -19.65,64.40 -19.64,66.54 -19.62,68.68 -19.59,71.00 -19.57,73.32 -18.83,75.59 -18.09,77.86 -16.17,78.86 -14.24,79.86 -12.06,81.25 -9.87,82.64 -7.75,84.34 -5.63,86.04 -3.99,87.59 -2.36,89.14 -0.63,90.64 1.08,92.14 2.86,93.60 4.64,95.07 6.67,96.00 8.70,96.93 11.10,97.21 13.51,97.50 16.13,97.53 18.75,97.57 21.29,96.70 23.82,95.84 25.80,94.76 27.77,93.68 29.90,91.82 32.03,89.97 33.83,88.30 35.64,86.62 36.55,84.39 37.45,82.15 38.42,79.63 39.39,77.11 40.09,75.08 40.79,73.05 41.51,70.95 42.23,68.85 42.82,66.67 43.41,64.49 44.03,61.93 44.65,59.37 45.14,57.10 45.64,54.82 45.99,52.68 46.34,50.54 46.67,48.13 47.01,45.71 47.43,43.09 47.85,40.47 48.18,37.84 48.52,35.20 48.71,32.64 48.91,30.09 49.08,27.85 49.26,25.62 49.36,22.57 49.46,19.53 49.57,16.97 49.69,14.40 51.34,16.11 52.98,17.82 51.03,19.22 49.07,20.62 47.48,22.47 45.89,24.32 44.37,26.41 42.86,28.51 41.39,30.35 39.92,32.18 38.58,33.86 37.25,35.53 36.19,37.39 35.14,39.25 33.63,41.28 32.12,43.31 30.95,45.34 29.79,47.36 28.52,49.39 27.25,51.41 21.02,53.42 14.79,55.44 13.92,54.54 13.04,53.64 12.50,52.52 11.95,51.39 11.80,50.14 11.64,48.90 11.89,47.67 12.14,46.44 12.77,45.36 13.40,44.27 14.35,43.45 15.29,42.62 16.45,42.14 17.60,41.66 18.85,41.57 20.11,41.48 21.32,41.80 22.53,42.12 23.58,42.80 24.63,43.49 25.40,44.48 26.18,45.46 26.59,46.65 27.01,47.83 27.03,49.08 27.05,50.34 26.67,51.53 26.29,52.72 25.54,53.73 24.80,54.74 23.77,55.46 22.75,56.18 21.54,56.53 20.34,56.89 19.09,56.84 17.83,56.79 16.66,56.34 15.49,55.90 14.52,55.10 13.56,54.30 12.89,53.24 12.23,52.18 11.94,50.96 11.66,49.73 11.77,48.49 11.89,47.24 12.40,46.09 12.91,44.95 13.75,44.02 14.60,43.10 15.70,42.50 16.80,41.89 18.03,41.67 19.27,41.45 20.51,41.63 21.75,41.82 22.87,42.39 23.98,42.96 23.98,42.96 23.98,42.96 19.90,41.77 15.83,40.59 16.92,38.67 18.02,36.76 19.40,34.72 20.77,32.68 22.08,30.74 23.39,28.79 24.53,26.84 25.67,24.89 27.39,23.17 29.11,21.46 30.45,19.60 31.80,17.74 33.18,16.01 34.55,14.27 36.29,12.33 38.02,10.39 39.63,8.98 41.24,7.58 43.44,6.30 45.63,5.01 48.09,4.45 50.55,3.89 52.91,3.94 55.28,3.99 57.75,4.57 60.21,5.14 61.57,6.88 62.93,8.61 63.56,11.60 64.18,14.59 64.06,17.11 63.94,19.63 63.77,21.86 63.60,24.08 63.50,26.56 63.39,29.04 63.17,31.34 62.96,33.64 62.74,36.62 62.51,39.61 62.16,42.47 61.82,45.33 61.48,47.78 61.15,50.23 60.79,52.70 60.44,55.17 60.04,57.54 59.65,59.91 59.09,62.59 58.54,65.28 57.94,68.00 57.34,70.73 56.63,73.28 55.93,75.84 55.23,77.92 54.53,80.01 53.77,82.30 53.00,84.59 52.26,86.67 51.51,88.76 50.52,90.98 49.52,93.19 48.02,95.40 46.52,97.61 44.32,99.64 42.13,101.66 40.34,103.26 38.55,104.86 36.35,106.28 34.15,107.71 31.92,108.92 29.68,110.12 26.95,111.27 24.23,112.41 22.04,112.74 19.85,113.06 17.68,113.06 15.51,113.06 12.93,112.87 10.35,112.67 8.02,112.41 5.69,112.14 3.28,111.46 0.86,110.77 -1.21,109.61 -3.28,108.46 -5.48,106.70 -7.67,104.95 -9.81,103.09 -11.94,101.23 -13.61,99.64 -15.28,98.05 -17.17,96.49 -19.06,94.93 -20.99,93.75 -22.92,92.57 -25.13,91.22 -27.33,89.88 -28.98,88.11 -30.64,86.34 -31.70,84.23 -32.76,82.11 -33.48,79.93 -34.21,77.75 -34.38,75.54 -34.56,73.32 -34.53,70.99 -34.50,68.67 -34.47,66.46 -34.44,64.26 -34.38,61.97 -34.31,59.68 -34.05,57.33 -33.79,54.99 -33.45,51.98 -33.12,48.96 -32.73,46.24 -32.34,43.51 -31.79,40.76 -31.23,38.02 -30.58,35.38 -29.92,32.75 -28.98,30.14 -28.04,27.54 -26.95,25.66 -25.86,23.78 -24.77,21.93 -23.67,20.09 -22.32,18.10 -20.97,16.11 -19.74,14.06 -18.51,12.01 -17.04,10.00 -15.56,8.00 -14.11,6.31 -12.66,4.62 -10.99,2.79 -9.33,0.96 -7.52,-0.60 -5.71,-2.17 -4.53,-3.06 -3.36,-3.94 -2.84,-4.29 -2.31,-4.63 -1.73,-4.84 -1.14,-5.05 -0.51,-5.12 0.10,-5.18 0.72,-5.09 1.34,-5.01 1.92,-4.77 2.50,-4.54 3.00,-4.17 3.51,-3.81 3.92,-3.33 4.32,-2.86 4.60,-2.30 4.88,-1.74 5.02,-1.13 5.16,-0.52 5.14,0.10 5.13,0.72 4.97,1.33 4.81,1.93 4.51,2.48 4.20,3.03 3.78,3.48 3.36,3.94 3.36,3.94 L 3.36,3.94 Z"></path></g><g transform="translate(1116.10546875 85.66015625) rotate(0 23.833984375 -10.001953125)" stroke="none"><path fill="#f08c00" d="M 0.14,-5.10 Q 0.14,-5.10 2.65,-5.06 5.17,-5.02 7.99,-5.19 10.82,-5.37 11.77,-7.90 12.73,-10.43 14.23,-13.29 15.73,-16.15 17.11,-19.01 18.48,-21.87 19.83,-24.75 21.18,-27.63 22.49,-30.50 23.81,-33.37 24.73,-35.79 25.66,-38.22 26.41,-40.36 27.17,-42.50 27.87,-44.60 28.56,-46.70 29.57,-50.49 30.58,-54.27 31.08,-56.78 31.57,-59.29 31.77,-62.05 31.97,-64.82 31.90,-66.97 31.83,-69.13 28.87,-68.94 25.90,-68.75 23.13,-68.71 20.35,-68.67 17.86,-68.34 15.36,-68.02 13.61,-66.68 11.86,-65.34 10.37,-63.69 8.88,-62.05 6.98,-59.86 5.08,-57.67 3.49,-55.62 1.90,-53.57 0.43,-51.33 -1.03,-49.09 -2.16,-47.06 -3.29,-45.03 -4.78,-42.20 -6.26,-39.36 -7.30,-36.98 -8.33,-34.61 -9.04,-32.41 -9.76,-30.21 -10.13,-28.03 -10.51,-25.85 -10.55,-23.49 -10.60,-21.12 -10.59,-18.96 -10.59,-16.80 -10.23,-14.05 -9.88,-11.30 -9.35,-8.22 -8.82,-5.14 -8.05,-1.60 -7.29,1.93 -6.32,5.43 -5.36,8.94 -4.14,12.73 -2.92,16.51 -1.66,19.90 -0.41,23.29 0.81,26.33 2.04,29.37 3.13,31.62 4.22,33.86 5.41,35.97 6.60,38.08 8.27,39.93 9.94,41.78 12.04,43.23 14.15,44.67 16.53,45.63 18.91,46.59 21.65,47.32 24.40,48.05 26.72,48.24 29.04,48.43 31.92,48.48 34.79,48.54 38.72,48.64 42.65,48.74 46.08,48.37 49.50,48.00 53.01,47.31 56.52,46.62 60.34,45.64 64.16,44.66 65.23,44.60 66.31,44.53 67.36,44.81 68.40,45.09 69.30,45.68 70.21,46.28 70.87,47.14 71.53,47.99 71.89,49.01 72.24,50.03 72.25,51.12 72.26,52.20 71.93,53.22 71.59,54.25 70.94,55.12 70.30,55.99 69.41,56.60 68.52,57.22 67.48,57.52 66.44,57.82 65.36,57.77 64.28,57.72 63.27,57.33 62.26,56.94 61.43,56.25 60.60,55.55 60.04,54.63 59.47,53.71 59.23,52.66 58.98,51.60 59.09,50.53 59.20,49.45 59.64,48.47 60.09,47.48 60.82,46.69 61.56,45.90 62.51,45.38 63.46,44.86 64.53,44.68 65.59,44.49 66.66,44.66 67.73,44.82 68.69,45.32 69.65,45.82 70.40,46.60 71.15,47.38 71.62,48.35 72.08,49.33 72.21,50.40 72.33,51.48 72.11,52.54 71.89,53.59 71.34,54.53 70.79,55.46 69.97,56.17 69.15,56.87 68.15,57.28 67.15,57.69 67.15,57.69 67.15,57.69 63.33,58.63 59.51,59.57 55.68,60.41 51.84,61.26 49.63,61.66 47.43,62.07 45.04,62.31 42.65,62.56 38.69,62.65 34.74,62.74 31.67,62.76 28.61,62.77 25.85,62.58 23.09,62.39 20.88,61.88 18.67,61.36 15.60,60.43 12.53,59.50 10.53,58.59 8.53,57.68 6.05,56.07 3.57,54.47 1.55,52.77 -0.46,51.08 -2.23,48.80 -4.00,46.53 -5.09,44.62 -6.18,42.72 -7.57,39.96 -8.96,37.21 -10.20,34.32 -11.45,31.42 -12.81,28.03 -14.16,24.65 -15.61,20.87 -17.05,17.09 -18.46,13.12 -19.87,9.16 -20.98,5.33 -22.10,1.49 -22.94,-2.01 -23.78,-5.53 -24.33,-8.16 -24.88,-10.80 -25.13,-13.81 -25.39,-16.81 -25.37,-19.04 -25.35,-21.27 -25.27,-23.72 -25.19,-26.16 -24.75,-29.11 -24.32,-32.06 -23.43,-35.20 -22.54,-38.33 -21.41,-41.07 -20.28,-43.81 -19.24,-46.01 -18.19,-48.22 -16.83,-50.78 -15.47,-53.35 -14.17,-55.59 -12.86,-57.83 -11.35,-59.95 -9.84,-62.07 -8.53,-63.78 -7.23,-65.50 -5.18,-67.87 -3.13,-70.24 -1.20,-72.31 0.72,-74.38 2.68,-76.17 4.64,-77.96 6.42,-79.12 8.20,-80.29 11.29,-81.22 14.38,-82.16 17.37,-82.40 20.36,-82.64 23.15,-82.59 25.94,-82.55 28.97,-82.47 32.01,-82.40 34.89,-81.89 37.77,-81.38 39.84,-80.13 41.91,-78.88 43.23,-76.42 44.54,-73.95 44.52,-71.48 44.50,-69.02 44.32,-66.46 44.13,-63.90 43.79,-61.57 43.45,-59.24 42.74,-56.56 42.03,-53.88 41.01,-50.80 39.99,-47.72 39.27,-45.45 38.56,-43.18 37.74,-40.99 36.92,-38.80 36.05,-36.66 35.18,-34.53 34.16,-31.94 33.15,-29.36 31.97,-26.42 30.79,-23.49 29.61,-20.51 28.43,-17.53 27.26,-14.53 26.08,-11.54 24.76,-8.05 23.43,-4.57 21.56,-1.68 19.68,1.19 17.57,2.91 15.47,4.63 13.39,5.10 11.31,5.58 8.09,5.44 4.87,5.30 2.36,5.20 -0.14,5.10 -0.75,5.01 -1.36,4.92 -1.93,4.68 -2.50,4.45 -2.99,4.08 -3.49,3.72 -3.88,3.25 -4.28,2.77 -4.55,2.22 -4.82,1.67 -4.95,1.07 -5.08,0.46 -5.06,-0.14 -5.04,-0.76 -4.88,-1.35 -4.71,-1.94 -4.41,-2.48 -4.11,-3.01 -3.69,-3.46 -3.27,-3.91 -2.75,-4.25 -2.24,-4.58 -1.66,-4.78 -1.07,-4.99 -0.46,-5.04 0.14,-5.10 0.14,-5.10 L 0.14,-5.10 Z"></path></g></svg>